<?xml version="1.0" standalone="no"?>
<!DOCTYPE svg PUBLIC "-//W3C//DTD SVG 20010904//EN"
 "http://www.w3.org/TR/2001/REC-SVG-20010904/DTD/svg10.dtd">
<svg version="1.0" xmlns="http://www.w3.org/2000/svg"
 width="200.000000pt" height="200.000000pt" viewBox="0 0 200.000000 200.000000"
 preserveAspectRatio="xMidYMid meet">

<g transform="translate(0.000000,200.000000) scale(0.100000,-0.100000)"
fill="#000000" stroke="none">
<path d="M963 1558 c-33 -16 -48 -61 -33 -98 23 -55 84 -67 125 -25 64 63 -12
164 -92 123z"/>
<path d="M401 1459 c-251 -44 -433 -298 -394 -549 21 -135 107 -265 222 -339
135 -87 327 -99 469 -29 64 32 179 134 218 193 16 24 15 27 -10 63 -15 20 -37
50 -51 66 l-24 30 -83 -86 c-105 -107 -154 -132 -258 -132 -99 0 -163 28 -229
100 -62 68 -85 131 -79 222 12 208 219 344 413 272 80 -30 154 -105 362 -370
223 -284 282 -340 400 -382 77 -27 215 -26 303 1 236 74 380 320 329 563 -63
301 -412 473 -686 338 -62 -31 -181 -136 -219 -196 -16 -24 -15 -26 32 -87 26
-34 49 -64 50 -66 2 -2 43 37 91 86 107 110 166 138 273 130 162 -11 277 -125
288 -283 6 -97 -15 -158 -79 -228 -66 -72 -130 -100 -229 -101 -140 0 -193 41
-408 315 -268 343 -330 405 -446 449 -65 24 -181 33 -255 20z"/>
<path d="M435 1035 c-49 -48 -15 -135 52 -135 32 1 55 15 71 47 18 34 14 52
-17 84 -36 36 -73 37 -106 4z"/>
<path d="M1466 1038 c-41 -37 -43 -72 -8 -108 18 -18 41 -30 57 -30 36 0 75
41 75 80 0 38 -39 80 -74 80 -14 0 -36 -10 -50 -22z"/>
<path d="M963 538 c-47 -23 -53 -103 -10 -133 74 -52 166 45 110 114 -21 25
-70 35 -100 19z"/>
</g>
</svg>
