<?xml version="1.0" encoding="UTF-8"?>
<svg version="1.1" xmlns="http://www.w3.org/2000/svg" width="200" height="200">
<path d="M0 0 C1.50894167 -0.00870832 3.01787452 -0.0190793 4.52679443 -0.03097534 C8.60348419 -0.05763007 12.67980168 -0.05892674 16.75656152 -0.05384874 C20.17075298 -0.05170035 23.5848705 -0.06149905 26.99904603 -0.07105958 C35.06045609 -0.09320744 43.12167974 -0.09414932 51.18310547 -0.08203125 C59.47382302 -0.06995924 67.76386108 -0.09456313 76.05446273 -0.13717139 C83.19536838 -0.17250892 90.3360588 -0.18438948 97.47704858 -0.1778959 C101.73193527 -0.17428592 105.9863374 -0.17938263 110.24114418 -0.20732498 C114.24622144 -0.23264568 118.25024724 -0.22844325 122.25531006 -0.2025032 C123.71609556 -0.19780734 125.17695696 -0.20311205 126.63765526 -0.21974945 C137.05658643 -0.3297646 145.86218455 1.24654418 153.93499088 8.28969097 C162.03640345 16.75134517 162.5429823 26.55757372 162.54956055 37.74853516 C162.56459746 39.22998306 162.58133577 40.71141456 162.59967041 42.19282532 C162.64318557 46.08546706 162.66327373 49.97788598 162.67840576 53.87072754 C162.69775178 57.75657177 162.74000441 61.64215587 162.7800293 65.52783203 C162.92646514 80.53520181 162.98830514 95.54374882 162.94628906 110.55178833 C162.93917485 114.04568472 162.94104533 117.539544 162.94213867 121.03344727 C162.94192596 127.27771261 162.9123193 133.52138262 162.85990143 139.76542568 C162.8306669 143.34672818 162.81291316 146.9273593 162.82006836 150.50878906 C162.82671407 154.04895769 162.8039597 157.58787881 162.76163101 161.12778854 C162.74542804 163.08387735 162.75841222 165.04014066 162.77243042 166.99624634 C162.62106399 176.35175125 160.45142815 184.19562459 154.31710815 191.47549438 C145.69454366 199.50805049 136.20398368 200.14200383 124.88037109 200.09863281 C123.37142942 200.10734113 121.86249657 200.11771211 120.35357666 200.12960815 C116.27688691 200.15626288 112.20056941 200.15755955 108.12380958 200.15248156 C104.70961811 200.15033316 101.29550059 200.16013186 97.88132507 200.1696924 C89.819915 200.19184026 81.75869135 200.19278213 73.69726562 200.18066406 C65.40654808 200.16859205 57.11651002 200.19319595 48.82590836 200.2358042 C41.68500271 200.27114174 34.54431229 200.2830223 27.40332252 200.27652872 C23.14843582 200.27291873 18.89403369 200.27801545 14.63922691 200.30595779 C10.63414965 200.33127849 6.63012385 200.32707606 2.62506104 200.30113602 C1.16427554 200.29644015 -0.29658587 200.30174486 -1.75728416 200.31838226 C-12.17791394 200.42841535 -20.82007583 198.81915554 -28.98189259 191.92600441 C-37.02370097 183.31713312 -37.65249297 173.8107898 -37.60913086 162.48950195 C-37.61783918 160.98056028 -37.62821016 159.47162743 -37.6401062 157.96270752 C-37.66676093 153.88601777 -37.6680576 149.80970027 -37.6629796 145.73294044 C-37.66083121 142.31874897 -37.67062991 138.90463145 -37.68019044 135.49045593 C-37.7023383 127.42904586 -37.70328018 119.36782221 -37.69116211 111.30639648 C-37.6790901 103.01567894 -37.70369399 94.72564088 -37.74630225 86.43503922 C-37.78163978 79.29413357 -37.79352034 72.15344315 -37.78702676 65.01245338 C-37.78341678 60.75756668 -37.78851349 56.50316455 -37.81645584 52.24835777 C-37.84177654 48.24328051 -37.8375741 44.23925471 -37.81163406 40.23419189 C-37.8069382 38.7734064 -37.81224291 37.31254499 -37.82888031 35.85184669 C-37.93891339 25.43121692 -36.32965359 16.78905503 -29.43650246 8.62723827 C-20.82763117 0.58542988 -11.32128785 -0.04336211 0 0 Z " fill="#FDFDFD" transform="translate(37.059814453125,-0.54931640625)"/>
<path d="M0 0 C1.50894167 -0.00870832 3.01787452 -0.0190793 4.52679443 -0.03097534 C8.60348419 -0.05763007 12.67980168 -0.05892674 16.75656152 -0.05384874 C20.17075298 -0.05170035 23.5848705 -0.06149905 26.99904603 -0.07105958 C35.06045609 -0.09320744 43.12167974 -0.09414932 51.18310547 -0.08203125 C59.47382302 -0.06995924 67.76386108 -0.09456313 76.05446273 -0.13717139 C83.19536838 -0.17250892 90.3360588 -0.18438948 97.47704858 -0.1778959 C101.73193527 -0.17428592 105.9863374 -0.17938263 110.24114418 -0.20732498 C114.24622144 -0.23264568 118.25024724 -0.22844325 122.25531006 -0.2025032 C123.71609556 -0.19780734 125.17695696 -0.20311205 126.63765526 -0.21974945 C137.05674747 -0.3297663 145.86193145 1.24671523 153.93504429 8.28960896 C162.15106806 16.87172291 162.49805301 26.81874887 162.33081055 38.08447266 C162.32333631 39.57375829 162.31764898 41.06305386 162.31365967 42.55235291 C162.29849607 46.44383615 162.2592968 50.33470799 162.21484375 54.22595215 C162.17368874 58.2080051 162.15560579 62.19015828 162.13549805 66.17236328 C162.0927914 73.96495763 162.02465559 81.75705086 161.94018555 89.54931641 C160.04606448 86.70813481 158.69567582 83.94942025 157.25268555 80.86181641 C151.27098045 68.92716442 142.63550372 61.90516464 130.12768555 57.17431641 C117.88313413 53.13878819 105.09522925 53.12345944 93.34643555 58.80322266 C84.83757749 63.6222827 75.4435384 70.61992147 70.94018555 79.54931641 C71.36506919 83.90437378 74.80431978 86.8764086 77.69799805 89.99853516 C78.94018555 91.54931641 78.94018555 91.54931641 78.94018555 93.54931641 C81.48484498 91.03196996 83.98707725 88.49842446 86.4128418 85.86572266 C94.35540047 77.42001547 102.01556593 71.3541013 114.12768555 70.92431641 C120.18846985 71.2176877 124.79045146 72.36186011 129.94018555 75.54931641 C130.63756836 75.96181641 131.33495117 76.37431641 132.0534668 76.79931641 C138.50097745 81.07337243 142.50698207 87.24970598 144.94018555 94.54931641 C145.76277819 105.79591092 144.9198819 113.88213945 137.69018555 122.79931641 C131.17716316 129.80046681 123.76726595 133.54563083 114.19018555 133.92431641 C102.73413419 133.65559421 95.70653526 128.63580573 87.94018555 120.54931641 C81.35969024 113.31949387 75.45038378 105.64383155 69.64086914 97.7890625 C64.16979988 90.43032467 58.35525297 83.36939942 52.45141602 76.35546875 C51.17167455 74.82598129 49.91465901 73.27752278 48.6628418 71.72509766 C41.84950647 63.51844222 32.08053263 56.50344767 21.24487305 55.23339844 C18.21927625 55.07471684 15.2198609 55.03036168 12.19018555 55.04931641 C10.58784058 55.05898437 10.58784058 55.05898437 8.953125 55.06884766 C1.03140138 55.2527783 -5.26755777 56.24126471 -12.05981445 60.54931641 C-13.01887695 61.13068359 -13.97793945 61.71205078 -14.96606445 62.31103516 C-21.63390352 66.72937475 -26.03420842 71.67498916 -30.05981445 78.54931641 C-30.67469727 79.58765625 -30.67469727 79.58765625 -31.30200195 80.64697266 C-33.89824031 85.41305985 -35.12297929 90.2241481 -36.05981445 95.54931641 C-36.38981445 95.54931641 -36.71981445 95.54931641 -37.05981445 95.54931641 C-37.19952757 86.23869928 -37.3057934 76.92844918 -37.37068748 67.61700821 C-37.40185145 63.29214402 -37.44404554 58.96800287 -37.51245117 54.64355469 C-37.57818437 50.46134199 -37.61363246 46.27981969 -37.62907791 42.09712982 C-37.64006858 40.51043596 -37.66152849 38.92377509 -37.69419479 37.33737946 C-37.90891816 26.46610928 -36.77130602 17.28615665 -29.43588257 8.6338501 C-20.84611733 0.57330916 -11.30569941 -0.0433024 0 0 Z " fill="#FDFDFD" transform="translate(37.059814453125,-0.54931640625)"/>
<path d="M0 0 C5.318425 4.34491753 9.20451523 9.53582197 12.71484375 15.40625 C13.2253125 16.24285156 13.73578125 17.07945313 14.26171875 17.94140625 C19.30311054 27.78344921 18.18123135 38.65493958 17.71484375 49.40625 C17.05484375 49.40625 16.39484375 49.40625 15.71484375 49.40625 C15.67359375 50.334375 15.63234375 51.2625 15.58984375 52.21875 C14.24802545 61.64981579 7.40789752 70.58684708 0.15234375 76.40625 C-10.20180119 83.86674607 -19.44545225 86.59289062 -31.97265625 86.71875 C-33.38708008 86.76225586 -33.38708008 86.76225586 -34.83007812 86.80664062 C-43.63226708 86.88528561 -51.23021586 84.65441289 -58.09765625 78.96875 C-58.78472656 78.41316406 -59.47179687 77.85757813 -60.1796875 77.28515625 C-69.93192877 68.58232127 -78.14535338 58.50789506 -85.9921875 48.11083984 C-103.18767637 23.03131881 -103.18767637 23.03131881 -128.28515625 8.40625 C-136.21558696 7.42255207 -142.39394318 8.37528946 -149.28515625 12.40625 C-149.91164062 12.74527344 -150.538125 13.08429688 -151.18359375 13.43359375 C-157.35779431 17.22169497 -161.0299853 23.64073715 -163.28515625 30.40625 C-164.05831981 41.861171 -164.05831981 41.861171 -160.28515625 52.40625 C-159.70765625 53.416875 -159.13015625 54.4275 -158.53515625 55.46875 C-153.14611908 62.50443742 -146.37586701 67.50361004 -137.46484375 68.82421875 C-127.03823727 69.32785379 -118.70291862 65.85574998 -110.91015625 59.03125 C-107.09915293 55.36162261 -103.61016766 51.51876411 -100.28515625 47.40625 C-96.43220095 48.69056843 -95.39793177 50.4340367 -92.97265625 53.65625 C-91.86470703 55.08710938 -91.86470703 55.08710938 -90.734375 56.546875 C-89.28515625 59.40625 -89.28515625 59.40625 -89.7734375 61.9296875 C-96.25483814 72.54779603 -106.8653699 81.81772051 -118.76953125 85.74609375 C-133.55223228 88.5219565 -147.80764186 87.47897374 -160.47265625 79.15625 C-162.09836398 77.93439688 -163.70356922 76.68469952 -165.28515625 75.40625 C-165.99671875 74.83261719 -166.70828125 74.25898438 -167.44140625 73.66796875 C-176.896506 65.17656186 -181.58892535 52.96008514 -182.49609375 40.51171875 C-182.94790662 26.97470999 -178.28734432 14.05110651 -169.02734375 4.0234375 C-165.40522418 0.66120095 -161.50803042 -2.03939651 -157.28515625 -4.59375 C-156.47046875 -5.10550781 -155.65578125 -5.61726563 -154.81640625 -6.14453125 C-147.79275705 -9.81128929 -140.929009 -10.08115148 -133.16015625 -10.15625 C-132.14679199 -10.17099365 -131.13342773 -10.1857373 -130.08935547 -10.20092773 C-116.97106977 -10.02261472 -107.02053017 -4.17321249 -97.75390625 4.87890625 C-90.50978438 12.66175238 -84.1022221 21.14193608 -77.62744141 29.56201172 C-61.23731978 53.85496137 -61.23731978 53.85496137 -37.28515625 68.40625 C-28.2089687 69.42449265 -20.52879723 68.15300385 -13.02734375 62.79296875 C-6.19036921 57.10389953 -1.86485906 50.89817134 -0.9140625 41.890625 C-0.76335124 33.41533308 -1.5473567 27.49917665 -6.28515625 20.40625 C-6.86265625 19.478125 -7.44015625 18.55 -8.03515625 17.59375 C-14.12170321 11.67627379 -22.42228243 8.13629434 -30.84765625 7.90625 C-41.33599459 8.10352282 -48.39613584 12.24176951 -55.78515625 19.46875 C-58.15674034 21.97077121 -60.34152909 24.47967766 -62.44140625 27.21484375 C-63.04984375 27.93800781 -63.65828125 28.66117188 -64.28515625 29.40625 C-64.94515625 29.40625 -65.60515625 29.40625 -66.28515625 29.40625 C-67.98076439 27.54760261 -69.50945572 25.70869274 -71.03515625 23.71875 C-71.47214844 23.18830078 -71.90914063 22.65785156 -72.359375 22.11132812 C-73.58203125 20.51953125 -73.58203125 20.51953125 -75.28515625 17.40625 C-73.86185593 9.3695111 -64.5589483 2.06489829 -58.28515625 -2.53125 C-39.73147142 -14.71532335 -17.92927689 -12.50452132 0 0 Z " fill="#030303" transform="translate(182.28515625,63.59375)"/>
<path d="M0 0 C4.0743356 0.84881992 5.54405875 2.30225596 8 5.625 C8.625 8.625 8.625 8.625 8 11.625 C5.54405875 14.94774404 4.0743356 16.40118008 0 17.25 C-4.0743356 16.40118008 -5.54405875 14.94774404 -8 11.625 C-8.625 8.625 -8.625 8.625 -8 5.625 C-5.54405875 2.30225596 -4.0743356 0.84881992 0 0 Z " fill="#0E0E0E" transform="translate(100,144.375)"/>
<path d="M0 0 C4.0743356 0.84881992 5.54405875 2.30225596 8 5.625 C8.625 8.625 8.625 8.625 8 11.625 C5.54405875 14.94774404 4.0743356 16.40118008 0 17.25 C-4.0743356 16.40118008 -5.54405875 14.94774404 -8 11.625 C-8.625 8.625 -8.625 8.625 -8 5.625 C-5.54405875 2.30225596 -4.0743356 0.84881992 0 0 Z " fill="#0D0D0D" transform="translate(100,42.375)"/>
<path d="M0 0 C3.71317907 1.14770989 5.2692056 1.85342428 7.4375 5.0625 C8 8 8 8 7.4375 11.0625 C4.98155875 14.38524404 3.5118356 15.83868008 -0.5625 16.6875 C-4.6368356 15.83868008 -6.10655875 14.38524404 -8.5625 11.0625 C-9.1875 8.0625 -9.1875 8.0625 -8.5625 5.0625 C-5.88937913 1.25532785 -4.71546409 0.08272744 0 0 Z " fill="#0B0B0B" transform="translate(49.5625,93.9375)"/>
<path d="M0 0 C4.14824477 0.76192251 5.57647551 2.19905511 8.0625 5.5625 C8.6875 8.5625 8.6875 8.5625 8.0625 11.5625 C5.61103142 14.87919279 4.10625441 16.32330628 0.0625 17.25 C-2.9375 16.5625 -2.9375 16.5625 -5.875 13.9375 C-7.9375 10.5625 -7.9375 10.5625 -8 7.4375 C-6.35486254 2.98595157 -4.75693834 0.91090309 0 0 Z " fill="#090909" transform="translate(150.9375,93.4375)"/>
</svg>
