<?xml version="1.0" encoding="UTF-8"?>
<svg version="1.1" xmlns="http://www.w3.org/2000/svg" width="200" height="200">
<path d="M0 0 C1.5187937 -0.00870817 3.03757863 -0.0190791 4.55635071 -0.03097534 C8.65989844 -0.05763165 12.76307637 -0.05892656 16.86669374 -0.05384874 C20.30325296 -0.05170046 23.73973872 -0.06149876 27.17628211 -0.07105958 C35.29042951 -0.09320798 43.40439172 -0.09414901 51.51855469 -0.08203125 C59.86380207 -0.06995913 68.20837442 -0.09456329 76.55350667 -0.13717139 C83.74112079 -0.17250766 90.92852106 -0.18438968 98.11621875 -0.1778959 C102.39904988 -0.17428573 106.68139963 -0.17938462 110.96415138 -0.20732498 C114.99549118 -0.23264358 119.02578631 -0.22844513 123.05711174 -0.2025032 C124.52757256 -0.1978069 125.99810876 -0.20311366 127.46848297 -0.21974945 C137.92006667 -0.32937357 146.58293152 1.25676904 154.77010822 8.1726284 C162.83770102 16.80714008 163.4409028 26.34709291 163.39770508 37.70092773 C163.40641325 39.21972144 163.41678417 40.73850637 163.42868042 42.25727844 C163.45533673 46.36082617 163.45663163 50.4640041 163.45155382 54.56762147 C163.44940554 58.0041807 163.45920384 61.44066645 163.46876466 64.87720984 C163.49091306 72.99135725 163.49185408 81.10531946 163.47973633 89.21948242 C163.46766421 97.56472981 163.49226837 105.90930216 163.53487647 114.25443441 C163.57021274 121.44204852 163.58209476 128.6294488 163.57560098 135.81714648 C163.57199081 140.09997762 163.5770897 144.38232736 163.60503006 148.66507912 C163.63034866 152.69641892 163.62615021 156.72671405 163.60020828 160.75803947 C163.59551198 162.22850029 163.60081874 163.6990365 163.61745453 165.16941071 C163.72707864 175.6209944 162.14093604 184.28385926 155.22507668 192.47103596 C146.590565 200.53862875 137.05061217 201.14183054 125.69677734 201.09863281 C124.17798364 201.10734098 122.65919871 201.11771191 121.14042664 201.12960815 C117.0368789 201.15626446 112.93370097 201.15755937 108.83008361 201.15248156 C105.39352438 201.15033328 101.95703863 201.16013157 98.52049524 201.1696924 C90.40634783 201.1918408 82.29238562 201.19278182 74.17822266 201.18066406 C65.83297527 201.16859195 57.48840292 201.1931961 49.14327067 201.2358042 C41.95565656 201.27114047 34.76825628 201.28302249 27.5805586 201.27652872 C23.29772746 201.27291854 19.01537771 201.27801743 14.73262596 201.30595779 C10.70128616 201.33127639 6.67099103 201.32707794 2.6396656 201.30113602 C1.16920479 201.29643971 -0.30133142 201.30174647 -1.77170563 201.31838226 C-12.22328933 201.42800638 -20.88615418 199.84186378 -29.07333088 192.92600441 C-37.14092367 184.29149273 -37.74412546 174.75153991 -37.70092773 163.39770508 C-37.7096359 161.87891138 -37.72000683 160.36012645 -37.73190308 158.84135437 C-37.75855939 154.73780664 -37.75985429 150.63462871 -37.75477648 146.53101134 C-37.7526282 143.09445212 -37.7624265 139.65796636 -37.77198732 136.22142297 C-37.79413572 128.10727557 -37.79507674 119.99331336 -37.78295898 111.87915039 C-37.77088687 103.533903 -37.79549102 95.18933066 -37.83809912 86.84419841 C-37.87343539 79.65658429 -37.88531741 72.46918402 -37.87882364 65.28148633 C-37.87521346 60.9986552 -37.88031235 56.71630545 -37.90825272 52.4335537 C-37.93357132 48.4022139 -37.92937286 44.37191877 -37.90343094 40.34059334 C-37.89873463 38.87013252 -37.9040414 37.39959632 -37.92067719 35.92922211 C-38.0303013 25.47763841 -36.4441587 16.81477356 -29.52829933 8.62759686 C-20.89378766 0.56000406 -11.35383483 -0.04319772 0 0 Z " fill="#010101" transform="translate(37.151611328125,-0.54931640625)"/>
<path d="M0 0 C10.55199661 7.27289009 18.09575406 18.39608778 25.71875 28.5 C30.24570459 34.49069652 34.94905146 40.33602038 39.67285156 46.171875 C40.93553091 47.74223543 42.17944293 49.32763458 43.421875 50.9140625 C51.62360851 61.27414694 61.25798562 71.91490582 75.0234375 73.8515625 C90.24752352 74.94922929 103.29284765 74.37442027 115.4375 64.0859375 C117.0234375 62.8515625 117.0234375 62.8515625 120.0234375 61.8515625 C121.08467594 60.02177455 121.08467594 60.02177455 122.0234375 57.8515625 C122.9835607 56.38062167 123.9638583 54.92270791 124.9609375 53.4765625 C128.32416841 48.47273114 131.13341905 43.90368796 132.0234375 37.8515625 C133.0134375 37.5215625 134.0034375 37.1915625 135.0234375 36.8515625 C135.16315061 46.16217962 135.26941644 55.47242973 135.33431053 64.7838707 C135.36547449 69.10873488 135.40766858 73.43287604 135.47607422 77.75732422 C135.54180742 81.93953692 135.57725551 86.12105922 135.59270096 90.30374908 C135.60369162 91.89044294 135.62515153 93.47710382 135.65781784 95.06349945 C135.8725412 105.93476963 134.73492907 115.11472226 127.39950562 123.76702881 C118.78314366 131.85252781 109.21056199 132.44401918 97.87182617 132.40087891 C96.35303247 132.40958708 94.83424754 132.419958 93.31547546 132.43185425 C89.21192773 132.45851056 85.1087498 132.45980546 81.00513244 132.45472765 C77.56857321 132.45257937 74.13208746 132.46237767 70.69554406 132.47193849 C62.58139666 132.49408689 54.46743445 132.49502791 46.35327148 132.48291016 C38.0080241 132.47083804 29.66345175 132.4954422 21.3183195 132.53805029 C14.13070538 132.57338656 6.94330511 132.58526859 -0.24439257 132.57877481 C-4.52722371 132.57516464 -8.80957346 132.58026352 -13.09232521 132.60820389 C-17.12366501 132.63352249 -21.15396014 132.62932404 -25.18528557 132.60338211 C-26.65574638 132.5986858 -28.12628259 132.60399257 -29.5966568 132.62062836 C-40.04703283 132.7302398 -48.87159297 131.17662928 -56.97106266 124.11185741 C-58.55569781 122.45638988 -59.76247162 120.79317566 -60.9765625 118.8515625 C-61.52373932 118.0110006 -61.52373932 118.0110006 -62.08197021 117.15345764 C-66.30852652 109.28436479 -65.47713676 100.57310219 -65.3671875 91.91015625 C-65.35971605 90.17424678 -65.35402739 88.4383288 -65.35003662 86.70240784 C-65.33485136 82.1599449 -65.29563203 77.61800329 -65.2512207 73.07574463 C-65.21011353 68.43012542 -65.19199279 63.784421 -65.171875 59.13867188 C-65.12912991 50.0427412 -65.06096607 40.94719541 -64.9765625 31.8515625 C-64.6465625 31.8515625 -64.3165625 31.8515625 -63.9765625 31.8515625 C-63.82960937 32.57859375 -63.68265625 33.305625 -63.53125 34.0546875 C-60.64126819 47.00977835 -55.66602033 57.58504845 -44.9765625 65.8515625 C-35.51516846 71.73140604 -27.37562524 74.05426108 -16.3515625 74.1640625 C-15.40410156 74.19306641 -14.45664062 74.22207031 -13.48046875 74.25195312 C-1.76760455 74.35610308 7.88022576 69.45972032 16.4453125 61.640625 C20.23422821 57.91361968 23.85095 54.12752391 27.0234375 49.8515625 C25.54529863 46.62182906 23.70597253 43.96159152 21.5234375 41.1640625 C20.915 40.37644531 20.3065625 39.58882812 19.6796875 38.77734375 C18.15907686 36.75833255 18.15907686 36.75833255 16.0234375 35.8515625 C15.76691406 36.42132813 15.51039062 36.99109375 15.24609375 37.578125 C10.33124104 46.7169246 1.07239786 54.11129581 -8.75 57.37890625 C-17.23995304 59.18115944 -24.51368204 58.17914998 -31.9765625 53.8515625 C-32.59917969 53.49320313 -33.22179687 53.13484375 -33.86328125 52.765625 C-35.5390625 51.7265625 -35.5390625 51.7265625 -37.9765625 49.8515625 C-37.9765625 49.1915625 -37.9765625 48.5315625 -37.9765625 47.8515625 C-38.6365625 47.8515625 -39.2965625 47.8515625 -39.9765625 47.8515625 C-41.1953125 46.3125 -41.1953125 46.3125 -42.4765625 44.2265625 C-43.11078125 43.21722656 -43.11078125 43.21722656 -43.7578125 42.1875 C-48.06256059 33.93673283 -48.68873396 24.32799328 -45.9140625 15.453125 C-41.79287589 6.56121692 -35.69286184 0.1803517 -26.52734375 -3.4921875 C-17.47712675 -5.82057411 -8.04741 -4.67576787 0 0 Z " fill="#010101" transform="translate(64.9765625,68.1484375)"/>
<path d="M0 0 C0.96574951 -0.01474365 1.93149902 -0.0294873 2.92651367 -0.04467773 C15.90351603 0.14015462 26.07564936 6.23544339 35.25 15.0625 C40.56150958 20.55378375 45.20590369 26.48032047 49.83300781 32.54541016 C52.70074208 36.29671169 55.60205597 40.02201893 58.5 43.75 C59.09659424 44.51812012 59.69318848 45.28624023 60.30786133 46.07763672 C64.90490829 51.98549333 69.57482835 57.81771626 74.375 63.5625 C74.97570312 64.31015625 75.57640625 65.0578125 76.1953125 65.828125 C81.31035369 72.0212242 87.36012222 76.86704508 95.375 78.5625 C105.75151154 79.54283903 114.51000207 77.43086516 122.84375 71.04296875 C129.14226424 64.95333381 131.65605128 57.03123735 131.875 48.4375 C131.72817946 39.64554041 129.43647131 32.75860572 123.25390625 26.37109375 C115.29151118 19.76106387 108.14869661 17.88529593 97.8359375 18.16015625 C87.40785594 19.37245016 79.08152017 26.77718195 72.63671875 34.69921875 C71.49611157 36.28321689 70.42520811 37.91717396 69.375 39.5625 C65.49485064 38.04190093 63.63593438 35.70171469 61.125 32.4375 C60.41859375 31.52742188 59.7121875 30.61734375 58.984375 29.6796875 C58.18773438 28.63167969 58.18773438 28.63167969 57.375 27.5625 C62.51696983 15.79009539 74.89337421 6.49776366 86.375 1.5625 C97.08633006 -2.00794335 112.43783473 -0.82749363 122.58984375 3.9609375 C135.9031862 11.61657622 143.95318837 21.50797092 149.625 35.6875 C152.78866919 52.03312417 149.13634317 65.84992758 140.0859375 79.5078125 C133.757485 87.73049568 122.46270214 94.48039456 112.375 96.5625 C108.98232468 96.8066572 105.58810904 96.7935946 102.1875 96.8125 C101.27935547 96.833125 100.37121094 96.85375 99.43554688 96.875 C86.74597257 96.94766757 76.51626814 91.81086994 67.4375 83.0625 C62.17140613 77.55889956 57.5312395 71.62782714 52.91699219 65.57958984 C50.04925876 61.82828941 47.14805116 58.10289644 44.25 54.375 C43.65195557 53.60542969 43.05391113 52.83585937 42.43774414 52.04296875 C37.84070497 46.13765371 33.19867776 40.28550751 28.375 34.5625 C27.63894531 33.66789062 26.90289062 32.77328125 26.14453125 31.8515625 C19.35752922 23.88472018 12.94590392 19.25707834 2.39453125 18.2890625 C-5.59005847 18.03620095 -10.92816876 19.19553173 -17.625 23.5625 C-18.6975 24.243125 -19.77 24.92375 -20.875 25.625 C-26.18672378 30.52696223 -29.18257187 37.30126842 -30.140625 44.36328125 C-30.35760228 52.07372385 -29.41044803 57.87294871 -25.625 64.5625 C-24.94665413 66.22444738 -24.27300425 67.88848903 -23.625 69.5625 C-22.965 69.5625 -22.305 69.5625 -21.625 69.5625 C-21.625 70.2225 -21.625 70.8825 -21.625 71.5625 C-21.04878906 71.84996094 -20.47257812 72.13742188 -19.87890625 72.43359375 C-18.44710175 73.15073673 -17.01717964 73.87166007 -15.58984375 74.59765625 C-14.58630859 75.10619141 -14.58630859 75.10619141 -13.5625 75.625 C-12.55509766 76.13740234 -12.55509766 76.13740234 -11.52734375 76.66015625 C-5.19814004 79.66230421 1.82962152 79.50617039 8.515625 77.7265625 C19.0688711 73.6946813 26.11416081 66.79416876 32.375 57.5625 C36.25514936 59.08309907 38.11406562 61.42328531 40.625 64.6875 C41.33140625 65.59757812 42.0378125 66.50765625 42.765625 67.4453125 C43.56226562 68.49332031 43.56226562 68.49332031 44.375 69.5625 C39.29166191 81.20066879 26.85718642 90.83683824 15.375 95.5625 C5.18864555 98.57103108 -9.76517294 98.2205269 -19.38671875 93.81640625 C-20.49466797 93.19572266 -20.49466797 93.19572266 -21.625 92.5625 C-22.39457031 92.13839844 -23.16414063 91.71429688 -23.95703125 91.27734375 C-36.33475591 83.70732134 -43.64370317 73.34516311 -47.5 59.4375 C-50.04504996 47.7575386 -48.81944261 35.10722942 -42.90234375 24.5234375 C-37.64363982 16.45044247 -31.98834516 10.41545728 -23.625 5.5625 C-22.80128906 5.05460937 -21.97757813 4.54671875 -21.12890625 4.0234375 C-14.24570542 0.4469703 -7.6116402 0.07699548 0 0 Z " fill="#FBFBFB" transform="translate(48.625,46.4375)"/>
<path d="M0 0 C1.9375 1.0625 1.9375 1.0625 3 3 C3.39281877 6.09344778 3.63008105 8.04575205 3 11 C0.42627616 14.02791041 -1.15246594 14.86162709 -5.0625 15.5 C-8 15 -8 15 -10.375 13.5 C-12.34683501 10.46640767 -12.64552934 8.48068984 -12.4453125 4.91015625 C-12 3 -12 3 -9.9375 0.4375 C-6.10852228 -1.43625505 -4.06665724 -1.12962701 0 0 Z " fill="#F5F5F5" transform="translate(104,139)"/>
<path d="M0 0 C1.9375 1.0625 1.9375 1.0625 3 3 C3.39281877 6.09344778 3.63008105 8.04575205 3 11 C0.42627616 14.02791041 -1.15246594 14.86162709 -5.0625 15.5 C-8 15 -8 15 -10.375 13.5 C-12.34683501 10.46640767 -12.64552934 8.48068984 -12.4453125 4.91015625 C-12 3 -12 3 -9.9375 0.4375 C-6.10852228 -1.43625505 -4.06665724 -1.12962701 0 0 Z " fill="#F5F5F5" transform="translate(155,88)"/>
<path d="M0 0 C1.9375 1.0625 1.9375 1.0625 3 3 C3.39281877 6.09344778 3.63008105 8.04575205 3 11 C0.43421091 14.0185754 -1.1809721 14.8495663 -5.0625 15.5625 C-8 15 -8 15 -10.375 12.9375 C-12.41723737 9.24576321 -12.68050965 7.15867007 -12 3 C-8.31376997 -1.46815761 -5.41712863 -1.50475795 0 0 Z " fill="#F6F6F6" transform="translate(53,88)"/>
<path d="M0 0 C1.9375 1.0625 1.9375 1.0625 3 3 C3.39281877 6.09344778 3.63008105 8.04575205 3 11 C0.43421091 14.0185754 -1.1809721 14.8495663 -5.0625 15.5625 C-8 15 -8 15 -10.375 12.9375 C-12.41723737 9.24576321 -12.68050965 7.15867007 -12 3 C-8.31376997 -1.46815761 -5.41712863 -1.50475795 0 0 Z " fill="#F6F6F6" transform="translate(104,37)"/>
</svg>
