<?xml version="1.0" standalone="no"?>
<!DOCTYPE svg PUBLIC "-//W3C//DTD SVG 20010904//EN"
 "http://www.w3.org/TR/2001/REC-SVG-20010904/DTD/svg10.dtd">
<svg version="1.0" xmlns="http://www.w3.org/2000/svg"
 width="200.000000pt" height="200.000000pt" viewBox="0 0 200.000000 200.000000"
 preserveAspectRatio="xMidYMid meet">

<g transform="translate(0.000000,200.000000) scale(0.100000,-0.100000)"
fill="#000000" stroke="none">
<path d="M895 1971 c-53 -24 -111 -90 -126 -143 -6 -26 -8 -63 -4 -93 4 -27 8
-59 8 -69 2 -15 -28 -37 -123 -92 l-124 -72 -39 35 c-78 70 -172 83 -264 38
-83 -42 -123 -109 -123 -206 0 -114 76 -202 193 -223 l38 -7 -3 -146 -3 -146
-48 -12 c-111 -28 -177 -110 -177 -219 0 -77 24 -131 79 -178 98 -83 231 -74
321 22 l35 38 123 -71 c122 -71 123 -71 115 -102 -13 -50 -8 -148 9 -180 42
-80 118 -125 211 -125 89 0 159 42 200 120 28 54 32 97 15 194 -2 15 23 35
120 93 l122 74 34 -35 c145 -155 398 -58 398 153 0 104 -71 196 -171 222 l-51
13 0 143 0 143 28 6 c150 36 228 192 163 327 -68 139 -258 170 -373 60 l-27
-26 -126 74 c-109 63 -125 76 -120 94 52 164 -51 315 -215 315 -32 0 -72 -8
-95 -19z m150 -106 c29 -29 35 -78 8 -73 -9 2 -20 14 -23 28 -8 35 -54 40 -71
8 -7 -13 -10 -25 -8 -28 2 -3 -4 -6 -13 -8 -14 -3 -18 3 -18 23 0 33 42 75 75
75 14 0 37 -11 50 -25z m36 -91 c11 -7 12 -84 0 -103 -10 -16 -156 -20 -172
-4 -6 6 -9 32 -7 59 3 41 6 49 28 56 26 8 135 2 151 -8z m-256 -169 c14 -14
25 -29 25 -33 0 -4 -19 -35 -42 -69 -30 -44 -49 -63 -64 -63 -11 0 -29 -9 -39
-20 -14 -16 -31 -20 -81 -20 -68 0 -68 0 -78 46 -7 32 -7 32 121 107 70 42
129 76 130 76 1 1 14 -10 28 -24z m485 -48 c130 -77 131 -77 110 -133 -9 -21
-16 -24 -68 -24 -45 0 -61 4 -75 20 -9 11 -25 20 -34 20 -11 0 -37 28 -64 68
l-47 67 22 27 c11 15 23 27 26 27 3 0 61 -32 130 -72z m-275 -18 c23 6 49 13
58 16 20 8 113 -123 98 -138 -6 -6 -11 -21 -11 -34 0 -16 -19 -37 -72 -76 -63
-46 -79 -54 -118 -54 -39 0 -55 8 -116 53 -63 47 -72 57 -76 91 -4 32 2 46 39
99 l44 61 56 -15 c43 -10 65 -11 98 -3z m630 -38 c3 -5 0 -22 -7 -36 -11 -24
-13 -25 -19 -8 -12 30 -10 53 5 53 8 0 17 -4 21 -9z m-1316 -53 c0 -43 -24
-177 -33 -185 -15 -15 -17 10 -6 84 16 113 21 133 31 133 5 0 9 -15 8 -32z
m1249 -1 c3 -28 -9 -34 -42 -21 -19 7 -21 40 -3 47 25 11 42 1 45 -26z m147 3
c0 -19 -6 -26 -26 -28 -19 -2 -26 2 -26 15 0 25 17 44 36 41 10 -2 16 -13 16
-28z m-1475 -12 c0 -7 -12 -25 -27 -40 l-27 -28 32 -33 c18 -18 29 -36 25 -40
-8 -8 -83 62 -83 77 0 12 61 76 72 76 4 0 8 -5 8 -12z m162 -25 l37 -36 -30
-39 c-17 -21 -37 -38 -45 -38 -21 0 -17 14 11 40 14 13 25 29 25 35 0 6 -11
22 -25 35 -24 23 -32 40 -18 40 4 0 24 -16 45 -37z m1268 -26 c0 -17 -2 -19
-9 -8 -12 19 -41 6 -41 -19 0 -23 19 -26 39 -7 11 10 13 9 8 -5 -4 -10 -2 -19
3 -19 6 -1 15 -3 20 -4 6 -1 15 -3 21 -4 6 0 9 -11 7 -23 -3 -24 -47 -40 -49
-19 -1 6 -3 16 -4 21 -1 6 -3 13 -4 18 0 4 -21 7 -45 8 -41 1 -45 -1 -48 -25
-4 -30 -44 -43 -54 -17 -8 21 14 47 35 44 11 -2 15 3 13 20 -2 12 2 22 7 22 6
0 11 -7 11 -15 0 -8 7 -15 16 -15 26 0 13 43 -15 50 -19 4 -21 7 -10 16 37 30
99 17 99 -19z m83 -23 c-7 -18 -14 -18 -49 1 -26 13 -27 15 -7 15 12 0 25 5
28 10 10 16 35 -8 28 -26z m-220 17 c17 -6 16 -8 -8 -19 -29 -13 -45 -9 -45
14 0 15 23 17 53 5z m-851 -35 c14 -17 17 -42 18 -144 0 -74 -4 -122 -9 -120
-6 2 -52 38 -104 80 l-94 78 18 52 c10 29 18 61 19 70 0 27 128 13 152 -16z
m709 -18 c6 -24 17 -55 25 -70 14 -26 13 -28 -74 -101 -48 -40 -93 -77 -101
-82 -11 -7 -13 14 -9 128 3 90 9 141 17 151 10 11 31 16 72 16 l58 0 12 -42z
m-560 -48 c43 -34 79 -63 79 -65 0 -18 -22 -42 -80 -85 -100 -74 -100 -74
-100 73 0 110 3 137 17 137 2 0 40 -27 84 -60z m360 50 c16 -9 19 -22 19 -78
0 -112 -11 -172 -32 -183 -16 -9 -31 -1 -91 47 -40 32 -73 58 -74 59 -1 0 1
13 5 29 5 17 32 46 77 81 39 30 71 54 73 54 2 1 12 -4 23 -9z m440 -83 c-5 -5
-17 -7 -27 -3 -13 5 -15 9 -6 18 7 7 12 21 12 33 0 16 3 15 15 -9 10 -19 12
-33 6 -39z m-1062 -106 c130 -108 130 -109 -15 -245 l-111 -105 -48 25 c-27
13 -54 24 -62 24 -10 0 -13 32 -13 150 0 135 2 151 18 156 47 15 93 39 108 55
10 11 20 19 23 19 3 0 48 -36 100 -79z m917 44 c20 -14 54 -30 75 -35 l39 -11
0 -143 0 -143 -60 -22 -60 -22 -114 88 c-112 87 -114 89 -108 123 3 21 17 43
36 60 17 14 57 48 91 77 33 29 61 52 62 52 1 1 19 -10 39 -24z m-408 -97 c39
-33 72 -65 72 -71 0 -7 -33 -40 -72 -74 -68 -56 -76 -60 -116 -57 -36 2 -56
13 -115 61 -98 80 -98 93 -5 159 67 47 75 51 118 46 36 -4 59 -16 118 -64z
m-378 -250 c0 -132 -2 -143 -22 -165 -18 -20 -31 -23 -90 -23 -57 0 -68 3 -68
17 0 9 -12 37 -27 62 l-26 45 109 103 c60 57 112 103 116 103 5 0 8 -64 8
-142z m138 81 c98 -82 98 -96 -5 -176 -42 -34 -82 -59 -90 -56 -10 4 -13 37
-13 142 0 76 3 141 7 144 13 14 30 5 101 -54z m353 51 c17 -10 19 -22 19 -108
0 -130 -8 -172 -31 -172 -10 0 -46 23 -81 51 -70 58 -88 77 -88 95 0 11 146
144 157 144 3 0 13 -5 24 -10z m239 -234 c-17 -29 -30 -62 -30 -74 0 -20 -5
-22 -70 -22 -53 0 -70 3 -70 14 0 7 -7 19 -15 26 -12 10 -15 39 -15 140 0 69
3 129 6 133 3 3 55 -33 115 -79 l108 -85 -29 -53z m-342 -21 c34 -27 62 -58
62 -67 0 -9 5 -28 11 -41 9 -21 5 -32 -38 -91 -40 -55 -51 -66 -68 -60 -23 9
-151 11 -179 4 -15 -4 -30 11 -67 62 -67 93 -63 117 37 195 50 39 86 60 111
63 42 6 45 5 131 -65z m610 1 l42 -11 0 -70 c0 -67 -2 -73 -33 -103 -18 -17
-46 -34 -62 -37 -41 -8 -96 23 -117 66 -21 40 -25 138 -5 143 6 3 32 11 57 19
25 8 52 12 60 9 8 -3 34 -10 58 -16z m-1322 -30 c28 -28 34 -42 34 -76 0 -34
-6 -48 -34 -76 -29 -29 -41 -34 -81 -34 -38 0 -52 5 -75 29 -52 51 -52 111 0
162 23 24 37 29 75 29 40 0 52 -5 81 -34z m301 -86 c14 -11 33 -20 42 -20 9
-1 38 -33 64 -71 l49 -71 -31 -30 -31 -31 -118 68 c-64 37 -121 71 -126 75 -5
5 -5 29 -2 54 l7 46 61 0 c45 0 66 -5 85 -20z m716 3 c2 -5 7 -24 11 -43 l6
-35 -124 -72 c-68 -40 -127 -73 -130 -73 -3 0 -17 11 -31 26 -29 29 -28 30 34
113 56 75 82 89 163 90 37 1 69 -2 71 -6z m-373 -258 c69 -36 68 -125 -1 -161
-19 -9 -41 -13 -59 -9 -22 5 -35 0 -63 -24 -19 -17 -39 -31 -45 -31 -22 0 -24
22 -4 43 30 33 42 62 42 99 0 39 23 76 54 88 31 13 44 12 76 -5z"/>
<path d="M1606 658 c-24 -34 -20 -73 10 -97 15 -12 35 -21 46 -21 27 0 68 45
68 75 0 59 -91 90 -124 43z m78 -11 c38 -27 -2 -95 -41 -71 -25 16 -29 55 -7
71 10 7 21 13 24 13 3 0 14 -6 24 -13z"/>
<path d="M290 682 c-19 -9 -39 -29 -44 -43 -11 -31 0 -82 16 -77 6 2 32 30 57
62 37 47 42 59 31 66 -20 13 -20 13 -60 -8z"/>
<path d="M337 601 c-26 -33 -47 -62 -47 -65 0 -3 17 -6 38 -6 53 0 85 34 80
86 -2 20 -8 39 -14 41 -6 2 -32 -23 -57 -56z"/>
<path d="M955 315 c-14 -13 -25 -36 -25 -50 0 -33 41 -75 74 -75 38 0 56 10
72 42 40 77 -59 146 -121 83z m101 -28 l27 -23 -28 -22 c-35 -27 -65 -28 -93
-2 -12 12 -22 23 -22 25 0 2 10 13 22 25 29 26 61 25 94 -3z"/>
<path d="M971 281 c-12 -8 -12 -12 -2 -25 8 -9 18 -16 23 -16 7 0 6 5 -1 13
-8 10 -7 17 1 25 14 14 -1 16 -21 3z"/>
<path d="M1025 265 c0 -28 5 -31 23 -13 8 8 9 15 1 25 -17 19 -24 16 -24 -12z"/>
<path d="M900 165 c-13 -14 -21 -27 -18 -30 2 -3 15 6 28 20 13 14 21 27 18
30 -2 3 -15 -6 -28 -20z"/>
</g>
</svg>
