<?xml version="1.0" standalone="no"?>
<!DOCTYPE svg PUBLIC "-//W3C//DTD SVG 20010904//EN"
 "http://www.w3.org/TR/2001/REC-SVG-20010904/DTD/svg10.dtd">
<svg version="1.0" xmlns="http://www.w3.org/2000/svg"
 width="200.000000pt" height="200.000000pt" viewBox="0 0 200.000000 200.000000"
 preserveAspectRatio="xMidYMid meet">

<g transform="translate(0.000000,200.000000) scale(0.100000,-0.100000)"
fill="#000000" stroke="none">
<path d="M185 1926 l-100 -42 -3 -150 c-3 -174 -8 -164 103 -209 39 -15 74
-32 80 -37 5 -4 8 -25 7 -46 -1 -20 1 -42 5 -48 15 -21 286 -172 300 -167 36
14 4 46 -117 116 l-125 72 -3 41 -3 40 88 35 88 35 3 154 c1 84 -2 158 -7 163
-11 11 -168 77 -196 82 -11 3 -65 -15 -120 -39z m169 -35 c54 -20 54 -21 -25
-54 -33 -14 -39 -13 -90 8 l-54 23 30 12 c17 7 39 16 50 20 29 13 35 12 89 -9z
m-84 -227 c0 -63 -2 -114 -5 -114 -2 0 -34 12 -70 27 l-65 27 0 117 0 118 70
-31 70 -31 0 -113z m190 53 l0 -114 -62 -27 c-35 -14 -66 -26 -70 -26 -5 0 -8
52 -8 115 l0 116 53 24 c88 41 87 42 87 -88z"/>
<path d="M1590 1929 c-52 -22 -99 -44 -104 -49 -9 -9 -11 -294 -2 -309 3 -4
44 -23 91 -41 l85 -33 0 -41 -1 -41 -112 -64 c-119 -68 -160 -99 -151 -112 12
-21 57 -3 179 70 l130 78 5 53 5 52 85 35 c47 19 91 40 98 45 8 8 12 51 12
153 0 102 -4 146 -12 153 -14 11 -197 92 -207 92 -3 -1 -49 -19 -101 -41z
m165 -38 l50 -19 -50 -22 c-61 -27 -58 -27 -120 -2 l-50 20 45 20 c57 26 64
26 125 3z m-87 -227 c2 -108 1 -116 -15 -109 -10 4 -42 16 -70 27 l-53 21 0
117 0 118 68 -28 67 -29 3 -117z m190 54 l-3 -113 -45 -21 c-96 -45 -90 -51
-90 81 l0 116 53 24 c89 42 88 42 85 -87z"/>
<path d="M942 1913 c-61 -30 -80 -108 -42 -170 11 -18 31 -35 44 -39 25 -6 25
-7 28 -138 3 -123 4 -131 23 -131 19 0 20 8 23 130 l3 131 33 18 c84 45 72
171 -19 206 -36 14 -54 12 -93 -7z m96 -49 c22 -15 30 -66 14 -90 -10 -15 -47
-34 -66 -34 -28 0 -56 38 -56 74 0 38 28 66 65 66 11 0 31 -7 43 -16z"/>
<path d="M811 1301 c-96 -55 -183 -110 -193 -123 -14 -18 -18 -38 -16 -93 l1
-70 -155 -3 -155 -2 -13 31 c-19 44 -87 75 -134 59 -49 -16 -78 -52 -83 -103
-5 -41 -2 -48 30 -83 31 -35 41 -39 80 -38 47 1 87 24 108 62 12 21 17 22 166
22 l153 0 1 -27 c1 -72 6 -114 15 -122 5 -5 92 -57 194 -115 l185 -105 40 24
c22 13 109 63 193 111 l152 87 0 73 0 74 160 0 159 0 16 -30 c17 -33 61 -60
97 -60 62 0 125 75 114 135 -21 108 -161 136 -211 42 l-20 -37 -155 2 -155 3
-1 83 c0 45 -3 83 -5 85 -17 13 -380 217 -386 217 -5 0 -86 -45 -182 -99z
m332 -32 c78 -45 144 -83 146 -86 10 -8 -29 -34 -158 -108 -154 -88 -124 -87
-266 -5 -38 22 -92 52 -118 67 -26 15 -46 33 -45 40 3 14 263 170 286 172 7 1
77 -36 155 -80z m-323 -221 l149 -83 1 -153 c0 -143 -1 -152 -17 -143 -10 6
-81 48 -158 93 l-140 84 -3 142 c-2 99 1 142 9 142 6 0 78 -37 159 -82z m518
-60 l-3 -142 -70 -39 c-38 -21 -107 -61 -153 -88 -46 -27 -85 -49 -88 -49 -2
0 -4 66 -4 148 l1 147 147 82 c81 46 153 83 160 83 10 0 12 -32 10 -142z
m-1109 47 c23 -22 18 -75 -8 -97 -47 -37 -111 -8 -111 51 0 59 76 88 119 46z
m1625 4 c17 -13 26 -30 26 -49 0 -33 -40 -70 -76 -70 -26 0 -64 43 -64 72 0
10 11 30 25 43 30 30 54 31 89 4z"/>
<path d="M428 687 c-69 -39 -130 -76 -134 -80 -5 -4 -11 -29 -14 -54 l-5 -47
-85 -34 c-47 -19 -91 -39 -97 -44 -18 -15 -18 -301 -1 -315 7 -6 56 -29 108
-52 l94 -41 108 47 108 47 0 157 0 157 -90 38 -91 39 3 34 c3 33 9 38 128 106
94 53 125 75 125 90 0 11 -7 21 -15 22 -8 1 -72 -30 -142 -70z m-74 -250 l49
-22 -57 -24 c-57 -23 -58 -23 -99 -5 -23 10 -46 21 -50 24 -6 6 85 49 103 49
3 0 27 -10 54 -22z m-149 -84 l65 -27 0 -118 c0 -65 -3 -118 -7 -118 -5 0 -36
12 -70 26 l-63 27 0 119 c0 65 2 118 5 118 2 0 34 -12 70 -27z m255 -91 l0
-118 -62 -27 c-35 -15 -66 -27 -70 -27 -5 0 -8 53 -8 119 l0 118 58 26 c31 15
63 27 70 27 9 0 12 -30 12 -118z"/>
<path d="M1404 745 c-3 -8 -3 -18 0 -24 4 -5 63 -42 131 -81 119 -68 125 -73
125 -104 0 -31 -3 -33 -87 -68 l-88 -35 -3 -160 -2 -159 108 -48 108 -47 107
50 107 50 0 150 c0 109 -3 152 -12 158 -7 4 -51 24 -98 44 l-85 35 -3 46 -3
47 -139 80 c-76 45 -144 81 -150 81 -6 0 -13 -7 -16 -15z m354 -312 c38 -16
36 -21 -25 -47 -41 -18 -42 -18 -97 5 -31 12 -55 24 -53 25 1 1 25 11 52 23
51 20 62 20 123 -6z m-153 -82 l65 -30 0 -116 c0 -108 -1 -117 -17 -110 -10 4
-42 16 -70 27 l-53 21 0 118 c0 66 2 119 5 119 3 0 35 -13 70 -29z m255 -86
l0 -115 -47 -24 c-99 -49 -93 -54 -93 82 l0 120 63 25 c34 15 65 26 70 27 4 0
7 -52 7 -115z"/>
<path d="M983 563 c-10 -3 -13 -44 -13 -153 l0 -148 -35 -21 c-98 -57 -54
-211 60 -211 61 0 115 55 115 117 0 39 -34 91 -64 99 l-26 6 -2 156 c-3 151
-6 167 -35 155z m59 -370 c22 -20 23 -61 2 -91 -18 -27 -69 -30 -96 -5 -22 20
-23 70 -1 95 20 22 70 23 95 1z"/>
</g>
</svg>
