<?xml version="1.0" standalone="no"?>
<!DOCTYPE svg PUBLIC "-//W3C//DTD SVG 20010904//EN"
 "http://www.w3.org/TR/2001/REC-SVG-20010904/DTD/svg10.dtd">
<svg version="1.0" xmlns="http://www.w3.org/2000/svg"
 width="200.000000pt" height="200.000000pt" viewBox="0 0 200.000000 200.000000"
 preserveAspectRatio="xMidYMid meet">

<g transform="translate(0.000000,200.000000) scale(0.100000,-0.100000)"
fill="#000000" stroke="none">
<path d="M185 1926 l-100 -42 0 -155 0 -154 35 -18 c19 -9 62 -30 95 -45 59
-27 60 -28 61 -70 0 -24 7 -49 15 -57 8 -7 72 -47 144 -89 96 -56 133 -72 142
-64 7 6 13 16 13 23 0 7 -58 46 -130 86 l-129 74 -1 41 0 41 88 34 87 35 0
158 0 158 -100 44 c-55 24 -104 44 -110 43 -5 0 -55 -20 -110 -43z m168 -33
c26 -9 47 -19 47 -22 0 -4 -25 -16 -54 -28 l-55 -22 -53 23 -53 24 45 20 c56
26 64 26 123 5z m-144 -89 l61 -27 0 -114 c0 -106 -1 -115 -17 -108 -10 4 -42
16 -70 27 l-53 21 0 113 c0 64 4 114 9 114 5 0 37 -12 70 -26z m251 -87 l0
-113 -65 -27 c-36 -15 -68 -27 -70 -27 -3 0 -5 52 -5 116 l0 115 53 24 c88 40
87 42 87 -88z"/>
<path d="M1590 1929 c-52 -22 -99 -45 -105 -52 -6 -7 -8 -69 -5 -162 l5 -149
88 -35 87 -34 0 -41 -1 -41 -112 -64 c-119 -68 -160 -99 -151 -112 12 -21 57
-3 179 70 l130 78 5 53 5 52 85 35 c47 19 91 40 98 45 8 8 12 51 12 153 0 102
-4 145 -12 153 -13 10 -199 92 -208 92 -3 -1 -48 -19 -100 -41z m165 -38 l50
-19 -55 -25 -55 -25 -50 20 c-71 28 -71 26 -10 51 52 21 61 21 120 -2z m-146
-87 l61 -27 0 -114 c0 -63 -3 -113 -7 -111 -5 2 -36 14 -70 27 l-63 24 0 113
c0 64 4 114 9 114 5 0 37 -12 70 -26z m251 -84 l0 -111 -62 -28 c-35 -16 -66
-26 -70 -24 -5 2 -8 53 -8 113 l0 109 53 25 c88 41 87 43 87 -84z"/>
<path d="M942 1913 c-81 -40 -82 -169 -3 -204 l30 -14 3 -130 c3 -122 4 -130
23 -130 19 0 20 8 23 130 l3 131 34 18 c64 35 74 129 18 184 -12 13 -67 32
-88 32 -5 0 -25 -8 -43 -17z m96 -49 c46 -32 16 -124 -41 -124 -41 0 -67 27
-67 70 0 42 26 70 65 70 11 0 31 -7 43 -16z"/>
<path d="M810 1300 c-96 -54 -182 -110 -192 -122 -14 -18 -17 -38 -15 -93 l2
-70 -156 -3 -156 -2 -13 31 c-19 44 -87 75 -134 59 -49 -16 -78 -52 -83 -103
-5 -40 -2 -48 29 -83 31 -33 41 -37 80 -37 49 0 90 23 107 61 11 22 13 22 168
20 l158 -3 -2 -52 c-2 -29 1 -62 5 -74 5 -13 75 -59 198 -129 l189 -109 40 24
c22 13 109 63 193 111 l152 87 0 73 0 74 160 0 159 0 16 -30 c9 -17 32 -38 51
-47 31 -15 39 -16 77 -3 56 20 91 71 82 120 -9 50 -36 83 -79 98 -33 10 -43
10 -80 -7 -29 -12 -47 -28 -56 -50 l-13 -31 -156 2 -156 3 -1 78 c-1 53 -6 83
-15 92 -17 15 -366 215 -377 215 -4 0 -86 -45 -182 -100z m363 -55 c65 -37
115 -71 110 -76 -4 -4 -57 -35 -118 -69 -60 -34 -124 -71 -141 -81 l-30 -18
-144 82 c-79 45 -144 87 -144 92 0 6 65 47 144 92 l143 82 31 -18 c17 -10 84
-49 149 -86z m-955 -202 c35 -30 38 -68 8 -97 -45 -46 -116 -24 -116 37 0 37
7 49 35 65 28 16 50 15 73 -5z m1642 -3 c26 -26 25 -68 -2 -97 -27 -29 -65
-29 -95 -1 -30 28 -29 63 2 93 29 30 68 32 95 5z"/>
<path d="M427 686 c-70 -40 -131 -76 -134 -80 -4 -4 -10 -28 -13 -53 l-5 -47
-85 -35 c-47 -20 -91 -40 -97 -44 -18 -12 -18 -300 -1 -314 7 -6 56 -29 108
-52 l94 -41 108 47 108 47 0 157 0 157 -91 38 -90 37 3 35 c3 34 8 39 128 107
89 52 125 78 125 91 0 10 -7 20 -15 21 -8 2 -72 -30 -143 -71z m-74 -248 l51
-22 -50 -22 c-62 -28 -62 -28 -121 -3 l-48 22 50 23 c62 28 56 28 118 2z
m-141 -89 l58 -24 0 -117 c0 -65 -2 -118 -5 -118 -2 0 -34 12 -70 27 l-65 27
0 119 c0 91 3 118 13 114 6 -3 38 -15 69 -28z m246 -86 l-3 -118 -45 -21 c-97
-46 -90 -52 -90 84 l0 120 63 25 c34 15 66 26 70 27 4 0 6 -53 5 -117z"/>
<path d="M1404 745 c-3 -8 -3 -18 0 -24 4 -5 63 -42 131 -81 119 -68 125 -73
125 -104 0 -31 -3 -33 -87 -68 l-88 -35 -3 -160 -2 -159 108 -48 108 -47 107
50 108 50 -3 152 c-2 123 -6 153 -18 160 -8 5 -51 24 -95 42 l-80 34 -5 46 -5
47 -137 80 c-76 44 -142 80 -148 80 -6 0 -13 -7 -16 -15z m344 -307 l53 -22
-43 -23 c-54 -28 -63 -28 -128 -1 l-53 22 49 22 c62 28 59 28 122 2z m-144
-88 l66 -29 0 -117 c0 -89 -3 -115 -12 -111 -7 3 -39 15 -70 28 l-58 24 0 118
c0 64 2 117 4 117 2 0 34 -13 70 -30z m256 -91 l0 -110 -65 -30 c-35 -16 -67
-29 -70 -29 -3 0 -5 54 -5 119 l0 119 63 25 c34 13 65 22 70 20 4 -2 7 -54 7
-114z"/>
<path d="M983 563 c-10 -4 -13 -43 -13 -153 l0 -148 -35 -21 c-98 -58 -54
-211 61 -211 34 0 89 36 103 68 25 54 -5 135 -54 148 l-25 6 0 153 c0 155 -4
170 -37 158z m61 -369 c9 -8 16 -30 16 -48 0 -60 -67 -90 -110 -51 -26 24 -27
90 -2 104 26 16 79 13 96 -5z"/>
</g>
</svg>
