<?xml version="1.0" encoding="UTF-8"?>
<svg version="1.1" xmlns="http://www.w3.org/2000/svg" width="200" height="200">
<path d="M0 0 C1.26502991 0.60115405 2.50850733 1.24912522 3.73046875 1.93359375 C4.44332031 2.330625 5.15617187 2.72765625 5.890625 3.13671875 C7.02757813 3.78060547 7.02757813 3.78060547 8.1875 4.4375 C8.97253906 4.87835938 9.75757812 5.31921875 10.56640625 5.7734375 C16.23668649 8.97089585 21.87867367 12.21730085 27.5 15.5 C28.22340576 15.92079834 28.94681152 16.34159668 29.69213867 16.77514648 C32.37805113 18.35705541 34.78610488 19.78610488 37 22 C37.14507695 24.74485593 37.18652423 27.38480543 37.125 30.125 C37.11597656 30.87910156 37.10695312 31.63320312 37.09765625 32.41015625 C37.0740687 34.27357254 37.03819719 36.13682593 37 38 C41.20034027 38.00533619 45.39803956 37.97169522 49.59765625 37.90234375 C51.02529505 37.88420678 52.45310912 37.87661116 53.88085938 37.87988281 C55.93757048 37.88274731 57.99066592 37.8473749 60.046875 37.8046875 C61.28276367 37.79421387 62.51865234 37.78374023 63.79199219 37.77294922 C67.27122835 37.28703372 67.27122835 37.28703372 69.31103516 34.03393555 C69.86839355 33.03273682 70.42575195 32.03153809 71 31 C74.97840501 28.28745113 79.3482726 28.19380808 84 29 C87.54966971 30.95119265 89.75989575 33.63984363 92 37 C92.52943899 40.9707924 92.86675378 43.50999517 90.83203125 47.0078125 C88.04637307 50.43080636 85.45610944 53.13051523 81 54 C75.67382126 53.80977933 72.81485189 52.70888378 69 49 C68.58500244 48.30221436 68.17000488 47.60442871 67.74243164 46.88549805 C66.10352888 44.72108428 66.10352888 44.72108428 63.21264648 44.56176758 C62.10993408 44.58907959 61.00722168 44.6163916 59.87109375 44.64453125 C58.07188477 44.67063477 58.07188477 44.67063477 56.23632812 44.69726562 C54.98271484 44.73529297 53.72910156 44.77332031 52.4375 44.8125 C49.95711107 44.86462504 47.47663952 44.91299789 44.99609375 44.95703125 C43.89450928 44.98772705 42.7929248 45.01842285 41.65795898 45.05004883 C39 45 39 45 37 44 C37.04640625 44.96421875 37.0928125 45.9284375 37.140625 46.921875 C37.17671875 48.18515625 37.2128125 49.4484375 37.25 50.75 C37.29640625 52.00296875 37.3428125 53.2559375 37.390625 54.546875 C36.92154665 58.69352764 36.08755772 59.34552812 33 62 C30.70092773 63.44458008 30.70092773 63.44458008 28.18359375 64.76953125 C27.25925537 65.26291992 26.33491699 65.75630859 25.38256836 66.26464844 C24.4106958 66.77543945 23.43882324 67.28623047 22.4375 67.8125 C15.42331888 71.54807202 8.61228252 75.29315572 2.12109375 79.890625 C-0.53967836 81.28226271 -2.01283128 81.27148712 -5 81 C-7.58032227 79.82592773 -7.58032227 79.82592773 -10.31640625 78.18359375 C-11.32896484 77.58353516 -12.34152344 76.98347656 -13.38476562 76.36523438 C-14.43341797 75.72908203 -15.48207031 75.09292969 -16.5625 74.4375 C-17.58408203 73.82841797 -18.60566406 73.21933594 -19.65820312 72.59179688 C-21.72544979 71.35927441 -23.78877126 70.12014494 -25.84814453 68.87451172 C-28.00806825 67.58993432 -30.18750086 66.33776298 -32.38232422 65.11376953 C-33.46143066 64.51032715 -34.54053711 63.90688477 -35.65234375 63.28515625 C-36.63066162 62.74898682 -37.60897949 62.21281738 -38.61694336 61.66040039 C-41.13275924 59.90749969 -42.00800357 58.86167929 -43 56 C-43.1953125 53.421875 -43.1953125 53.421875 -43.125 50.75 C-43.10695312 49.85796875 -43.08890625 48.9659375 -43.0703125 48.046875 C-43.04710937 47.37140625 -43.02390625 46.6959375 -43 46 C-47.45136724 43.77431638 -53.3622403 44.59117065 -58.25 44.5 C-59.47847656 44.44585937 -60.70695312 44.39171875 -61.97265625 44.3359375 C-68.41375625 44.04704404 -68.41375625 44.04704404 -74.109375 46.54101562 C-75.72230636 48.3788637 -75.72230636 48.3788637 -76.92675781 50.33984375 C-78 52 -78 52 -80.5 53.5 C-83.83464251 54.1669285 -85.73363185 54.04523781 -89 53 C-92.15723102 50.77632394 -95.2527783 48.49444339 -97 45 C-97.54895595 39.29085808 -96.62637093 36.43223114 -93 32 C-91.04010033 29.8223337 -89.79601906 29.09269723 -86.88671875 28.75390625 C-82.6696189 28.63657287 -79.68149181 28.78166519 -76 31 C-73.64872567 33.60319658 -73 34.42129926 -73 38 C-62.77 38 -52.54 38 -42 38 C-42.33 33.71 -42.66 29.42 -43 25 C-40.54624961 18.18315003 -33.46985976 15.35497361 -27.4375 12 C-26.40302734 11.40960938 -25.36855469 10.81921875 -24.30273438 10.2109375 C-22.23387256 9.03465289 -20.15884465 7.86914364 -18.07763672 6.71484375 C-16.00949196 5.56248386 -13.95379453 4.38752251 -11.91064453 3.19140625 C-10.9411084 2.63324219 -9.97157227 2.07507812 -8.97265625 1.5 C-8.110354 0.9946875 -7.24805176 0.489375 -6.35961914 -0.03125 C-3.62184552 -1.15525266 -2.70183359 -1.0921941 0 0 Z " fill="#092859" transform="translate(102,60)"/>
<path d="M0 0 C3 1.20703125 3 1.20703125 6 2.8125 C6.99 3.33457031 7.98 3.85664062 9 4.39453125 C9.99 4.92433594 10.98 5.45414062 12 6 C13.093125 6.54011719 14.18625 7.08023437 15.3125 7.63671875 C18 9 18 9 19 10 C19.26631687 14.38082066 19.2712442 18.76732812 19.29516602 23.15527344 C19.31237784 25.35935685 19.35624787 27.56193963 19.40039062 29.765625 C19.41051747 31.16405144 19.41903361 32.56249067 19.42578125 33.9609375 C19.44036377 35.23759277 19.45494629 36.51424805 19.4699707 37.82958984 C19 41 19 41 17.14160156 42.86694336 C14.62413843 44.19885699 12.12223987 45.23414339 9.4375 46.1875 C8.48746094 46.53167969 7.53742187 46.87585937 6.55859375 47.23046875 C4 48 4 48 1 48 C0.76315653 51.36021675 0.68448057 52.97536196 2 56 C5.66454692 59.01877094 9.79082603 61.0830904 14 63.25 C16.23524883 64.43127045 18.46476324 65.6234763 20.6875 66.828125 C21.68136719 67.3427832 22.67523438 67.85744141 23.69921875 68.38769531 C26 70 26 70 26.95703125 72.07324219 C26.97121094 72.70907227 26.98539063 73.34490234 27 74 C26.34 74.66 25.68 75.32 25 76 C21.00595176 75.65458263 18.03822725 74.12009752 14.5859375 72.1640625 C13.57789063 71.59429687 12.56984375 71.02453125 11.53125 70.4375 C10.4896875 69.839375 9.448125 69.24125 8.375 68.625 C7.32570312 68.03460938 6.27640625 67.44421875 5.1953125 66.8359375 C-3.75561878 61.740792 -3.75561878 61.740792 -6 59 C-6.29296875 56.51953125 -6.29296875 56.51953125 -6.1875 53.8125 C-6.16042969 52.91144531 -6.13335938 52.01039062 -6.10546875 51.08203125 C-6.07066406 50.39496094 -6.03585938 49.70789062 -6 49 C-6.69867187 48.88398437 -7.39734375 48.76796875 -8.1171875 48.6484375 C-11.29448712 47.93376035 -14.11628202 46.86920668 -17.125 45.625 C-18.15882812 45.20476563 -19.19265625 44.78453125 -20.2578125 44.3515625 C-24.26360348 42.37719829 -24.26360348 42.37719829 -26 40 C-26.34057617 36.90551758 -26.34057617 36.90551758 -26.29296875 33.14453125 C-26.28872391 32.48289474 -26.28447906 31.82125824 -26.28010559 31.13957214 C-26.26333693 29.0301309 -26.22569099 26.92165154 -26.1875 24.8125 C-26.17245068 23.38087319 -26.1587627 21.94923138 -26.14648438 20.51757812 C-26.1134403 17.01140712 -26.06167167 13.50579746 -26 10 C-15.6484375 4.82421875 -15.6484375 4.82421875 -13.78417969 3.90380859 C-12.13773804 3.06977371 -10.52387237 2.17224742 -8.9140625 1.26953125 C-5.5777632 -0.18395035 -3.60380533 -0.4363983 0 0 Z " fill="#062657" transform="translate(33,2)"/>
<path d="M0 0 C0.70954834 0.38623535 1.41909668 0.7724707 2.15014648 1.17041016 C1.78041382 3.63790293 1.5342758 4.84880236 -0.4128418 6.47900391 C-1.07525879 6.85154297 -1.73767578 7.22408203 -2.42016602 7.60791016 C-3.15235352 8.02814453 -3.88454102 8.44837891 -4.63891602 8.88134766 C-5.40977539 9.30673828 -6.18063477 9.73212891 -6.97485352 10.17041016 C-7.72250977 10.59580078 -8.47016602 11.02119141 -9.24047852 11.45947266 C-15.05255897 14.76041034 -15.05255897 14.76041034 -17.93310547 16.24169922 C-19.62118143 17.13022829 -21.24295245 18.14232781 -22.84985352 19.17041016 C-23.90636442 22.80188501 -23.90636442 22.80188501 -23.84985352 26.17041016 C-23.15375977 26.28384766 -22.45766602 26.39728516 -21.74047852 26.51416016 C-18.5047597 27.24875578 -15.65383773 28.37660404 -12.59985352 29.67041016 C-11.54282227 30.11384766 -10.48579102 30.55728516 -9.39672852 31.01416016 C-6.84985352 32.17041016 -6.84985352 32.17041016 -5.84985352 33.17041016 C-5.76145681 35.54609535 -5.73455046 37.8924969 -5.75219727 40.26806641 C-5.75361221 40.9769249 -5.75502716 41.68578339 -5.75648499 42.41612244 C-5.76209909 44.68842728 -5.77465389 46.96063491 -5.78735352 49.23291016 C-5.7923667 50.77001811 -5.79692992 52.30712761 -5.80102539 53.84423828 C-5.81207309 57.61966657 -5.8293471 61.39502186 -5.84985352 65.17041016 C-16.80415865 70.7076485 -16.80415865 70.7076485 -21.09985352 72.48291016 C-21.86813477 72.80904297 -22.63641602 73.13517578 -23.42797852 73.47119141 C-30.12305223 75.40412398 -34.65975994 73.23998485 -40.59985352 70.29541016 C-41.3668457 69.93060547 -42.13383789 69.56580078 -42.92407227 69.18994141 C-48.54875339 66.47151028 -48.54875339 66.47151028 -50.84985352 64.17041016 C-51.31786911 59.93345077 -51.30659709 55.68153201 -51.33032227 51.421875 C-51.34972774 49.30910346 -51.41173944 47.20023511 -51.47485352 45.08837891 C-51.48791575 43.74334991 -51.49841586 42.39829311 -51.50610352 41.05322266 C-51.52479492 39.83006348 -51.54348633 38.6069043 -51.56274414 37.34667969 C-50.84985352 34.17041016 -50.84985352 34.17041016 -48.00512695 31.83300781 C-44.91079569 30.20252221 -41.83932421 28.73898868 -38.59985352 27.42041016 C-37.56344727 26.99244141 -36.52704102 26.56447266 -35.45922852 26.12353516 C-32.84985352 25.17041016 -32.84985352 25.17041016 -30.84985352 25.17041016 C-30.97360352 23.31416016 -30.97360352 23.31416016 -31.09985352 21.42041016 C-31.24047852 19.31103516 -31.24047852 19.31103516 -30.84985352 17.17041016 C-26.42578378 12.13981991 -20.61765189 9.16656929 -14.91235352 5.79541016 C-13.82760742 5.12896484 -12.74286133 4.46251953 -11.62524414 3.77587891 C-10.5765918 3.15583984 -9.52793945 2.53580078 -8.44750977 1.89697266 C-7.49368408 1.32543457 -6.5398584 0.75389648 -5.55712891 0.16503906 C-2.84985352 -0.82958984 -2.84985352 -0.82958984 0 0 Z " fill="#0C2A5B" transform="translate(57.849853515625,123.82958984375)"/>
<path d="M0 0 C4.27714999 1.29862557 7.9408313 2.94049558 11.80078125 5.1875 C12.85974609 5.80367187 13.91871094 6.41984375 15.00976562 7.0546875 C16.09966797 7.69664062 17.18957031 8.33859375 18.3125 9 C19.97635742 9.96292969 19.97635742 9.96292969 21.67382812 10.9453125 C29.87251759 15.74503517 29.87251759 15.74503517 31 18 C31.13415472 20.6723621 31.04318541 23.32250488 31 26 C31.53367188 26.15855469 32.06734375 26.31710938 32.6171875 26.48046875 C38.68624267 28.38098603 44.53459514 30.71425065 50 34 C52.28379183 38.56758365 51.27522605 44.86041124 51.3125 49.875 C51.34150391 51.16792969 51.37050781 52.46085937 51.40039062 53.79296875 C51.40876953 55.03433594 51.41714844 56.27570313 51.42578125 57.5546875 C51.44036377 58.69405762 51.45494629 59.83342773 51.4699707 61.00732422 C50.8937592 64.67651934 49.89273996 65.74542572 47 68 C44.48950086 69.50643363 41.81526255 70.59985106 39.125 71.75 C38.43019531 72.06582031 37.73539063 72.38164062 37.01953125 72.70703125 C32.08601035 74.85325221 28.17092131 76.10895212 22.86523438 74.25341797 C20.43775101 73.25472512 18.06379698 72.17728246 15.6875 71.0625 C14.86443359 70.68931641 14.04136719 70.31613281 13.19335938 69.93164062 C7.18049487 67.18049487 7.18049487 67.18049487 6 66 C5.9116033 63.6243148 5.88469695 61.27791326 5.90234375 58.90234375 C5.9037587 58.19348526 5.90517365 57.48462677 5.90663147 56.75428772 C5.91224557 54.48198288 5.92480037 52.20977525 5.9375 49.9375 C5.94251319 48.40039204 5.94707641 46.86328255 5.95117188 45.32617188 C5.96221958 41.55074358 5.97949359 37.77538829 6 34 C7.86967605 33.01070539 9.74601378 32.03399531 11.625 31.0625 C13.19121094 30.24458984 13.19121094 30.24458984 14.7890625 29.41015625 C17.92416918 28.03330283 20.61454632 27.40157784 24 27 C24 24.69 24 22.38 24 20 C23.26934326 19.72220703 22.53868652 19.44441406 21.78588867 19.15820312 C19.19390597 18.08061431 16.85327173 16.87197744 14.42578125 15.46875 C13.59369141 14.98792969 12.76160156 14.50710937 11.90429688 14.01171875 C11.04900391 13.51285156 10.19371094 13.01398438 9.3125 12.5 C8.44560547 12.00113281 7.57871094 11.50226563 6.68554688 10.98828125 C0.25514552 7.25514552 0.25514552 7.25514552 -2 5 C-1.46428571 1.46428571 -1.46428571 1.46428571 0 0 Z " fill="#0F2D5E" transform="translate(141,123)"/>
<path d="M0 0 C0.71091797 0.29583984 1.42183594 0.59167969 2.15429688 0.89648438 C2.83943359 1.19490234 3.52457031 1.49332031 4.23046875 1.80078125 C4.84688232 2.06673096 5.4632959 2.33268066 6.09838867 2.60668945 C8.38557711 4.0488463 9.46865234 5.32965133 10.8125 7.6875 C11.20068359 10.66430664 11.20068359 10.66430664 11.2109375 14.09765625 C11.21673828 15.95293945 11.21673828 15.95293945 11.22265625 17.84570312 C11.21105469 19.13412109 11.19945312 20.42253906 11.1875 21.75 C11.19910156 23.04228516 11.21070313 24.33457031 11.22265625 25.66601562 C11.21878906 26.90158203 11.21492188 28.13714844 11.2109375 29.41015625 C11.20755371 30.54203369 11.20416992 31.67391113 11.20068359 32.84008789 C10.8125 35.6875 10.8125 35.6875 9.5065918 37.47949219 C6.67720875 39.49704332 3.47283848 40.64013757 0.25 41.875 C-0.77770508 42.28395508 -0.77770508 42.28395508 -1.82617188 42.70117188 C-6.89902491 44.6875 -6.89902491 44.6875 -9.1875 44.6875 C-9.03087891 45.66589844 -9.03087891 45.66589844 -8.87109375 46.6640625 C-8.60341967 49.54474543 -8.61841294 51.84488449 -9.1875 54.6875 C-10.8684082 56.31616211 -10.8684082 56.31616211 -13.11328125 57.65234375 C-13.93127197 58.15185547 -14.7492627 58.65136719 -15.59204102 59.16601562 C-16.44854248 59.66810547 -17.30504395 60.17019531 -18.1875 60.6875 C-18.9930835 61.18958984 -19.79866699 61.69167969 -20.62866211 62.20898438 C-23.04628728 63.71447777 -25.48729756 65.17324528 -27.9375 66.625 C-28.76121094 67.13095703 -29.58492187 67.63691406 -30.43359375 68.15820312 C-31.63435547 68.86686523 -31.63435547 68.86686523 -32.859375 69.58984375 C-33.5719043 70.01773193 -34.28443359 70.44562012 -35.01855469 70.88647461 C-37.75805917 71.89821642 -39.4193697 71.47107609 -42.1875 70.6875 C-41.82156112 68.16897945 -41.51492539 66.97677874 -39.578125 65.265625 C-38.87171875 64.82734375 -38.1653125 64.3890625 -37.4375 63.9375 C-36.63570312 63.43476562 -35.83390625 62.93203125 -35.0078125 62.4140625 C-33.61175781 61.55941406 -33.61175781 61.55941406 -32.1875 60.6875 C-31.05883779 59.96780243 -29.93128447 59.24636367 -28.8046875 58.5234375 C-19.60166557 52.6875 -19.60166557 52.6875 -16.1875 52.6875 C-16.18243104 48.57127402 -16.18243104 48.57127402 -17.1875 44.6875 C-19.58943893 42.69362114 -22.26258876 41.77271381 -25.1875 40.75 C-26.66701701 40.17929284 -28.14620181 39.60772342 -29.625 39.03515625 C-31.3884375 38.36806641 -31.3884375 38.36806641 -33.1875 37.6875 C-35.86371473 35.01128527 -34.46168135 27.38141434 -34.48266602 23.53222656 C-34.49987784 21.32814315 -34.54374787 19.12556037 -34.58789062 16.921875 C-34.59801747 15.52344856 -34.60653361 14.12500933 -34.61328125 12.7265625 C-34.62786377 11.44990723 -34.64244629 10.17325195 -34.6574707 8.85791016 C-34.1875 5.6875 -34.1875 5.6875 -32.39086914 3.86376953 C-31.66375732 3.47560059 -30.93664551 3.08743164 -30.1875 2.6875 C-29.58437988 2.35782227 -28.98125977 2.02814453 -28.35986328 1.68847656 C-26.35096092 0.75526118 -24.33560263 -0.16045607 -22.3125 -1.0625 C-21.61769531 -1.39121094 -20.92289063 -1.71992187 -20.20703125 -2.05859375 C-12.58185881 -5.4619193 -7.29808389 -3.20846637 0 0 Z " fill="#0C2B5C" transform="translate(181.1875,6.3125)"/>
<path d="M0 0 C7.25111441 1.54531947 7.25111441 1.54531947 9.75 3.0625 C11.77402133 6.19973306 11.31019713 9.58523808 11.1875 13.1875 C11.16719727 14.31188477 11.16719727 14.31188477 11.14648438 15.45898438 C11.11118539 17.30629767 11.05737917 19.15324066 11 21 C15.20034027 21.00533619 19.39803956 20.97169522 23.59765625 20.90234375 C25.02529505 20.88420678 26.45310912 20.87661116 27.88085938 20.87988281 C29.93757048 20.88274731 31.99066592 20.8473749 34.046875 20.8046875 C35.28276367 20.79421387 36.51865234 20.78374023 37.79199219 20.77294922 C41.27122835 20.28703372 41.27122835 20.28703372 43.31103516 17.03393555 C43.86839355 16.03273682 44.42575195 15.03153809 45 14 C48.97840501 11.28745113 53.3482726 11.19380808 58 12 C61.54966971 13.95119265 63.75989575 16.63984363 66 20 C66.52943899 23.9707924 66.86675378 26.50999517 64.83203125 30.0078125 C62.04637307 33.43080636 59.45610944 36.13051523 55 37 C49.67382126 36.80977933 46.81485189 35.70888378 43 32 C42.58500244 31.30221436 42.17000488 30.60442871 41.74243164 29.88549805 C40.10352888 27.72108428 40.10352888 27.72108428 37.21264648 27.56176758 C36.10993408 27.58907959 35.00722168 27.6163916 33.87109375 27.64453125 C32.67162109 27.66193359 31.47214844 27.67933594 30.23632812 27.69726562 C28.98271484 27.73529297 27.72910156 27.77332031 26.4375 27.8125 C23.95711107 27.86462504 21.47663952 27.91299789 18.99609375 27.95703125 C17.89450928 27.98772705 16.7929248 28.01842285 15.65795898 28.05004883 C13 28 13 28 11 27 C11.04640625 27.96421875 11.0928125 28.9284375 11.140625 29.921875 C11.19476563 31.81679687 11.19476563 31.81679687 11.25 33.75 C11.29640625 35.00296875 11.3428125 36.2559375 11.390625 37.546875 C11 41 11 41 9.15625 43.375 C6.85581988 45.10865749 4.72502183 46.09165939 2 47 C2 46.34 2 45.68 2 45 C1.34 44.67 0.68 44.34 0 44 C0.33 43.67 0.66 43.34 1 43 C-2.39339805 43.66115961 -4.94271739 44.97555512 -7.9140625 46.72265625 C-9.30238281 47.52993164 -9.30238281 47.52993164 -10.71875 48.35351562 C-11.6778125 48.91748047 -12.636875 49.48144531 -13.625 50.0625 C-15.53156629 51.18228993 -17.44031453 52.29837583 -19.3515625 53.41015625 C-20.19541504 53.90652588 -21.03926758 54.40289551 -21.90869141 54.91430664 C-24 56 -24 56 -26 56 C-26 46.1 -26 36.2 -26 26 C-22.24625 23.855 -18.4925 21.71 -14.625 19.5 C-13.44244629 18.82130859 -12.25989258 18.14261719 -11.04150391 17.44335938 C-10.11257324 16.91548828 -9.18364258 16.38761719 -8.2265625 15.84375 C-7.27346191 15.29912109 -6.32036133 14.75449219 -5.33837891 14.19335938 C-3 13 -3 13 -1 13 C-1.20625 12.236875 -1.4125 11.47375 -1.625 10.6875 C-2 8 -2 8 0 5 C-0.66 4.01 -1.32 3.02 -2 2 C-1.34 2 -0.68 2 0 2 C0 1.34 0 0.68 0 0 Z " fill="#0A2859" transform="translate(128,77)"/>
<path d="M0 0 C6.57290154 0.73852826 12.04100002 4.6803117 17.6875 7.875 C18.84056641 8.51308594 19.99363281 9.15117188 21.18164062 9.80859375 C22.28056641 10.42605469 23.37949219 11.04351562 24.51171875 11.6796875 C25.51678467 12.24413574 26.52185059 12.80858398 27.55737305 13.39013672 C30 15 30 15 32 18 C26.14791464 22.20939474 19.97168709 25.79834128 13.6875 29.3125 C12.89875488 29.75706543 12.11000977 30.20163086 11.29736328 30.65966797 C10.54310059 31.07748535 9.78883789 31.49530273 9.01171875 31.92578125 C8.33584717 32.30130127 7.65997559 32.67682129 6.96362305 33.0637207 C4.86459329 34.06456356 3.32335681 34.77034049 1 35 C-1.48608398 33.96777344 -1.48608398 33.96777344 -4.24609375 32.359375 C-5.74946289 31.49505859 -5.74946289 31.49505859 -7.28320312 30.61328125 C-8.32412109 29.99839844 -9.36503906 29.38351563 -10.4375 28.75 C-11.47455078 28.15058594 -12.51160156 27.55117187 -13.58007812 26.93359375 C-16.39513253 25.30277867 -19.20115681 23.65845763 -22 22 C-22.93593994 21.50145508 -23.87187988 21.00291016 -24.83618164 20.48925781 C-25.5502417 19.99780273 -26.26430176 19.50634766 -27 19 C-27 18.01 -27 17.02 -27 16 C-26.21761963 15.55084229 -25.43523926 15.10168457 -24.62915039 14.63891602 C-21.73421244 12.97595821 -18.84009701 11.31158703 -15.9465332 9.64624023 C-14.69263 8.92496561 -13.43839908 8.2042604 -12.18383789 7.48413086 C-10.38341747 6.450543 -8.58417519 5.41493106 -6.78515625 4.37890625 C-5.70113525 3.7557251 -4.61711426 3.13254395 -3.50024414 2.49047852 C-1.14058329 1.22234919 -1.14058329 1.22234919 0 0 Z " fill="#1EC2B5" transform="translate(97,65)"/>
<path d="M0 0 C3.64457369 0.58060497 6.40364355 1.56144223 9.6171875 3.36328125 C10.47183594 3.83830078 11.32648438 4.31332031 12.20703125 4.80273438 C13.08746094 5.30095703 13.96789062 5.79917969 14.875 6.3125 C16.18404297 7.04243164 16.18404297 7.04243164 17.51953125 7.78710938 C22.36446659 10.49371611 27.18134793 13.24648453 32 16 C32 26.23 32 36.46 32 47 C28.28103135 45.51241254 25.26569861 44.08848985 21.875 42.06640625 C20.92109375 41.49986328 19.9671875 40.93332031 18.984375 40.34960938 C17.50710937 39.46499023 17.50710937 39.46499023 16 38.5625 C15.01515625 37.97662109 14.0303125 37.39074219 13.015625 36.78710938 C10.34143045 35.19524086 7.6697985 33.59922802 5 32 C4.07936768 31.5786377 3.15873535 31.15727539 2.21020508 30.72314453 C0 29 0 29 -0.56762695 25.99731445 C-0.54144287 24.7980835 -0.51525879 23.59885254 -0.48828125 22.36328125 C-0.47216797 21.06455078 -0.45605469 19.76582031 -0.43945312 18.42773438 C-0.39767609 17.05597301 -0.35535135 15.68422823 -0.3125 14.3125 C-0.28741745 12.92907618 -0.26460418 11.54560923 -0.24414062 10.16210938 C-0.18510827 6.77365236 -0.10280082 3.38736615 0 0 Z " fill="#FA4D4D" transform="translate(65,87)"/>
<path d="M0 0 C0 9.9 0 19.8 0 30 C-10.5 35.6875 -10.5 35.6875 -13.75976562 37.44799805 C-18.78022857 40.17729585 -23.69134089 42.97491434 -28.45898438 46.12817383 C-30 47 -30 47 -32 47 C-32 37.1 -32 27.2 -32 17 C-19.8125 10.1875 -19.8125 10.1875 -15.99536133 8.05541992 C-14.9927124 7.49443604 -13.99006348 6.93345215 -12.95703125 6.35546875 C-11.93585205 5.78465576 -10.91467285 5.21384277 -9.86254883 4.62573242 C-7.97082995 3.55136517 -6.09973743 2.43974595 -4.25268555 1.2902832 C-2 0 -2 0 0 0 Z " fill="#F94D4E" transform="translate(134,86)"/>
<path d="M0 0 C0.70954834 0.38623535 1.41909668 0.7724707 2.15014648 1.17041016 C1.78041382 3.63790293 1.5342758 4.84880236 -0.4128418 6.47900391 C-1.07525879 6.85154297 -1.73767578 7.22408203 -2.42016602 7.60791016 C-3.15235352 8.02814453 -3.88454102 8.44837891 -4.63891602 8.88134766 C-5.40977539 9.30673828 -6.18063477 9.73212891 -6.97485352 10.17041016 C-7.72250977 10.59580078 -8.47016602 11.02119141 -9.24047852 11.45947266 C-15.05255897 14.76041034 -15.05255897 14.76041034 -17.93310547 16.24169922 C-19.62118143 17.13022829 -21.24295245 18.14232781 -22.84985352 19.17041016 C-23.90636442 22.80188501 -23.90636442 22.80188501 -23.84985352 26.17041016 C-22.85985352 26.50041016 -21.86985352 26.83041016 -20.84985352 27.17041016 C-23.3926488 30.45485406 -24.59061954 31.12926191 -28.78735352 31.79541016 C-29.47700195 31.84826172 -30.16665039 31.90111328 -30.87719727 31.95556641 C-33.42281739 32.23281216 -35.54256401 33.0888682 -37.84985352 34.17041016 C-37.18985352 35.49041016 -36.52985352 36.81041016 -35.84985352 38.17041016 C-37.84985352 39.17041016 -37.84985352 39.17041016 -44.84985352 38.17041016 C-44.84985352 46.09041016 -44.84985352 54.01041016 -44.84985352 62.17041016 C-40.39485352 63.65541016 -40.39485352 63.65541016 -35.84985352 65.17041016 C-33.86985352 66.16041016 -31.88985352 67.15041016 -29.84985352 68.17041016 C-29.84985352 59.92041016 -29.84985352 51.67041016 -29.84985352 43.17041016 C-28.85985352 43.17041016 -27.86985352 43.17041016 -26.84985352 43.17041016 C-26.2025607 51.19221752 -25.72790099 59.12154339 -25.84985352 67.17041016 C-22.87985352 66.18041016 -19.90985352 65.19041016 -16.84985352 64.17041016 C-17.34485352 66.15041016 -17.34485352 66.15041016 -17.84985352 68.17041016 C-16.85985352 69.16041016 -16.85985352 69.16041016 -15.84985352 70.17041016 C-17.38572492 70.85032161 -18.92890853 71.51372556 -20.47485352 72.17041016 C-21.33336914 72.54166016 -22.19188477 72.91291016 -23.07641602 73.29541016 C-29.93735557 75.45998827 -34.47244908 73.33283706 -40.59985352 70.29541016 C-41.3668457 69.93060547 -42.13383789 69.56580078 -42.92407227 69.18994141 C-48.54875339 66.47151028 -48.54875339 66.47151028 -50.84985352 64.17041016 C-51.31786911 59.93345077 -51.30659709 55.68153201 -51.33032227 51.421875 C-51.34972774 49.30910346 -51.41173944 47.20023511 -51.47485352 45.08837891 C-51.48791575 43.74334991 -51.49841586 42.39829311 -51.50610352 41.05322266 C-51.52479492 39.83006348 -51.54348633 38.6069043 -51.56274414 37.34667969 C-50.84985352 34.17041016 -50.84985352 34.17041016 -48.00512695 31.83300781 C-44.91079569 30.20252221 -41.83932421 28.73898868 -38.59985352 27.42041016 C-37.56344727 26.99244141 -36.52704102 26.56447266 -35.45922852 26.12353516 C-32.84985352 25.17041016 -32.84985352 25.17041016 -30.84985352 25.17041016 C-30.97360352 23.31416016 -30.97360352 23.31416016 -31.09985352 21.42041016 C-31.24047852 19.31103516 -31.24047852 19.31103516 -30.84985352 17.17041016 C-26.42578378 12.13981991 -20.61765189 9.16656929 -14.91235352 5.79541016 C-13.82760742 5.12896484 -12.74286133 4.46251953 -11.62524414 3.77587891 C-10.5765918 3.15583984 -9.52793945 2.53580078 -8.44750977 1.89697266 C-7.49368408 1.32543457 -6.5398584 0.75389648 -5.55712891 0.16503906 C-2.84985352 -0.82958984 -2.84985352 -0.82958984 0 0 Z " fill="#092959" transform="translate(57.849853515625,123.82958984375)"/>
<path d="M0 0 C1.2065625 0.0309375 1.2065625 0.0309375 2.4375 0.0625 C3.87259221 2.93268441 3.54908506 5.39793723 3.53515625 8.6015625 C3.53193359 9.90351563 3.52871094 11.20546875 3.52539062 12.546875 C3.51703466 13.92708399 3.50856971 15.30729232 3.5 16.6875 C3.49498501 18.07551926 3.4904221 19.46354022 3.48632812 20.8515625 C3.47450976 24.25525132 3.45803434 27.65885439 3.4375 31.0625 C4.21351562 31.33964844 4.98953125 31.61679688 5.7890625 31.90234375 C9.58568776 33.5654672 10.67543367 35.33505199 12.4375 39.0625 C12.87648812 43.95162256 12.17307901 47.12811585 9.125 51 C3.77606813 55.10499423 3.77606813 55.10499423 -1.5 54.9375 C-5.44993872 54.31227693 -7.73796013 52.97011457 -10.5625 50.0625 C-13.08731154 46.57585549 -12.99724022 43.26498882 -12.5625 39.0625 C-10.1926413 34.41055513 -8.39531382 32.76961334 -3.5625 31.0625 C-3.56773682 30.15894775 -3.57297363 29.25539551 -3.57836914 28.32446289 C-3.59537686 24.98298511 -3.60793333 21.64155308 -3.61743164 18.30004883 C-3.62247101 16.85179927 -3.62930253 15.40355483 -3.63793945 13.95532227 C-3.65002247 11.87775412 -3.65573211 9.80025303 -3.66015625 7.72265625 C-3.66801147 5.84525757 -3.66801147 5.84525757 -3.67602539 3.92993164 C-3.52383699 0.08594724 -3.52383699 0.08594724 0 0 Z " fill="#1D3865" transform="translate(99.5625,142.9375)"/>
<path d="M0 0 C3.22934644 2.6552404 5.4264079 5.13754666 7 9 C7.3394022 13.86476486 6.62459171 17.19460543 3.625 21.0625 C1 23 1 23 -2 23 C-1.99214478 24.12027588 -1.99214478 24.12027588 -1.98413086 25.26318359 C-1.96339599 28.63378057 -1.95035101 32.00436414 -1.9375 35.375 C-1.92912109 36.550625 -1.92074219 37.72625 -1.91210938 38.9375 C-1.90727539 40.61972656 -1.90727539 40.61972656 -1.90234375 42.3359375 C-1.89448853 43.89127197 -1.89448853 43.89127197 -1.88647461 45.47802734 C-2 48 -2 48 -3 50 C-4.66611905 50.042721 -6.33382885 50.04063832 -8 50 C-9.69727112 48.30272888 -9.12912021 46.11290996 -9.140625 43.79296875 C-9.16962891 42.2006543 -9.16962891 42.2006543 -9.19921875 40.57617188 C-9.23289463 38.32895442 -9.25128835 36.08145261 -9.25390625 33.83398438 C-9.1990179 27.50364771 -9.1990179 27.50364771 -12.43359375 22.37890625 C-13.28050781 21.92386719 -14.12742187 21.46882813 -15 21 C-17.82371175 17.49470266 -18.5487227 14.51866796 -18.34375 9.9921875 C-17.74549174 6.52500894 -16.33829408 4.57811911 -14 2 C-9.0315771 -0.90605867 -5.55241484 -1.64515995 0 0 Z " fill="#163760" transform="translate(105,7)"/>
<path d="M0 0 C2 2 2 2 2 5 C-1.78774694 7.17357444 -5.58082029 9.3376772 -9.375 11.5 C-10.45523438 12.12003906 -11.53546875 12.74007812 -12.6484375 13.37890625 C-13.6796875 13.96542969 -14.7109375 14.55195312 -15.7734375 15.15625 C-16.72653809 15.70087891 -17.67963867 16.24550781 -18.66162109 16.80664062 C-21 18 -21 18 -23 18 C-23 27.9 -23 37.8 -23 48 C-15.27352692 43.36111418 -15.27352692 43.36111418 -7.56347656 38.69506836 C-6.59893555 38.12409424 -5.63439453 37.55312012 -4.640625 36.96484375 C-3.65610352 36.3730835 -2.67158203 35.78132324 -1.65722656 35.17163086 C1 34 1 34 3.35253906 34.31469727 C3.89620117 34.54084717 4.43986328 34.76699707 5 35 C4.859375 37.26660156 4.859375 37.26660156 4 40 C1.515625 41.92871094 1.515625 41.92871094 -1.75 43.734375 C-2.32331055 44.05786926 -2.89662109 44.38136353 -3.48730469 44.71466064 C-5.31646236 45.74244164 -7.15743291 46.74649334 -9 47.75 C-10.83936021 48.77288012 -12.67610084 49.80035049 -14.51269531 50.82818604 C-16.17626294 51.75576058 -17.84581872 52.67257098 -19.515625 53.58886719 C-21.868228 54.77969085 -21.868228 54.77969085 -23 56 C-25.3125 56.3125 -25.3125 56.3125 -28 56 C-30.3125 54.125 -30.3125 54.125 -32 52 C-32 51.34 -32 50.68 -32 50 C-32.99 50 -33.98 50 -35 50 C-35 48.68 -35 47.36 -35 46 C-30.25 47.875 -30.25 47.875 -28 49 C-28 38.77 -28 28.54 -28 18 C-29.98 17.34 -31.96 16.68 -34 16 C-36.15300464 14.84230164 -38.27883851 13.63269689 -40.375 12.375 C-41.43460937 11.74335937 -42.49421875 11.11171875 -43.5859375 10.4609375 C-44.78089844 9.73777344 -44.78089844 9.73777344 -46 9 C-43.65559527 7.52389332 -42.36359194 6.97315373 -39.56640625 7.1796875 C-35.73660255 8.40382567 -32.7238167 10.59917342 -29.40234375 12.8203125 C-27.16872951 14.19342474 -27.16872951 14.19342474 -25.1887207 13.75756836 C-22.4482712 12.80903352 -20.09577565 11.4992494 -17.578125 10.05859375 C-16.55332031 9.47529297 -15.52851562 8.89199219 -14.47265625 8.29101562 C-13.40917969 7.67935547 -12.34570312 7.06769531 -11.25 6.4375 C-10.17105469 5.82197266 -9.09210938 5.20644531 -7.98046875 4.57226562 C-5.31783398 3.05244312 -2.65782304 1.52821656 0 0 Z " fill="#0A2557" transform="translate(125,85)"/>
<path d="M0 0 C0.53625 0.309375 1.0725 0.61875 1.625 0.9375 C1.625 2.2575 1.625 3.5775 1.625 4.9375 C-1.675 4.6075 -4.975 4.2775 -8.375 3.9375 C-8.705 4.5975 -9.035 5.2575 -9.375 5.9375 C-11.6890622 6.66825648 -14.02328869 7.33888258 -16.375 7.9375 C-15.10307637 10.48134726 -14.17551531 10.63118156 -11.5625 11.625 C-10.87542969 11.89699219 -10.18835938 12.16898438 -9.48046875 12.44921875 C-6.13114008 13.22596473 -3.94011432 12.19180145 -0.875 10.8125 C1.84596232 9.86016319 2.97046892 9.95434034 5.625 10.9375 C5.625 11.9275 5.625 12.9175 5.625 13.9375 C4.33586513 14.60904933 3.04359796 15.27458859 1.75 15.9375 C1.03070313 16.30875 0.31140625 16.68 -0.4296875 17.0625 C-2.375 17.9375 -2.375 17.9375 -4.375 17.9375 C-4.375 25.1975 -4.375 32.4575 -4.375 39.9375 C-5.86 40.4325 -5.86 40.4325 -7.375 40.9375 C-7.375 33.0175 -7.375 25.0975 -7.375 16.9375 C-9.685 16.6075 -11.995 16.2775 -14.375 15.9375 C-17.12471743 15.08566137 -19.7003464 14.01674619 -22.375 12.9375 C-22.4330966 16.8541043 -22.46862893 20.77059763 -22.5 24.6875 C-22.51675781 25.79867188 -22.53351563 26.90984375 -22.55078125 28.0546875 C-22.56044922 29.65957031 -22.56044922 29.65957031 -22.5703125 31.296875 C-22.58078613 32.28139648 -22.59125977 33.26591797 -22.60205078 34.28027344 C-22.36989618 36.99723111 -21.76536273 38.61862513 -20.375 40.9375 C-27.25 40.0625 -27.25 40.0625 -28.375 38.9375 C-28.64131687 34.55667934 -28.6462442 30.17017188 -28.67016602 25.78222656 C-28.68737784 23.57814315 -28.73124787 21.37556037 -28.77539062 19.171875 C-28.78551747 17.77344856 -28.79403361 16.37500933 -28.80078125 14.9765625 C-28.81536377 13.69990723 -28.82994629 12.42325195 -28.8449707 11.10791016 C-28.375 7.9375 -28.375 7.9375 -26.57836914 6.11376953 C-25.85125732 5.72560059 -25.12414551 5.33743164 -24.375 4.9375 C-23.77187988 4.60782227 -23.16875977 4.27814453 -22.54736328 3.93847656 C-20.53846092 3.00526118 -18.52310263 2.08954393 -16.5 1.1875 C-15.80519531 0.85878906 -15.11039063 0.53007813 -14.39453125 0.19140625 C-9.05889552 -2.19003569 -5.48418695 -2.45345206 0 0 Z " fill="#0D2A5C" transform="translate(175.375,4.0625)"/>
<path d="M0 0 C0.5775 0.20625 1.155 0.4125 1.75 0.625 C1.0625 2.5 1.0625 2.5 -0.25 4.625 C-1.9 5.285 -3.55 5.945 -5.25 6.625 C-5.58 14.545 -5.91 22.465 -6.25 30.625 C-4.5175 29.8 -2.785 28.975 -1 28.125 C2.71913969 26.3539811 4.55434426 25.625 8.75 25.625 C8.75 18.365 8.75 11.105 8.75 3.625 C12.06595143 8.04626857 12.31127226 10.80059094 12.5 16.0625 C12.54253906 16.81337891 12.58507812 17.56425781 12.62890625 18.33789062 C12.72862491 20.43752248 12.75346499 22.52335015 12.75 24.625 C12.76933594 25.53765625 12.78867188 26.4503125 12.80859375 27.390625 C10.94327933 31.32774622 6.93168871 32.34074006 3.0625 33.9375 C2.25876953 34.29650391 1.45503906 34.65550781 0.62695312 35.02539062 C-5.01423057 37.44699442 -9.15668452 38.54849973 -15.20703125 36.7421875 C-18.03645732 35.5113291 -20.66776234 34.31877284 -23.25 32.625 C-24.4375 29.3125 -24.4375 29.3125 -24.25 26.625 C-19.17997663 27.24329553 -16.22677524 28.49209633 -11.25 30.625 C-11.25 22.705 -11.25 14.785 -11.25 6.625 C-12.9 6.295 -14.55 5.965 -16.25 5.625 C-16.25 2.625 -16.25 2.625 -14.25 0.625 C-12.23413874 0.88511113 -10.21834353 1.14988406 -8.2109375 1.46875 C-4.89817682 1.73271499 -3.27619932 -0.54603322 0 0 Z " fill="#102C5E" transform="translate(178.25,160.375)"/>
<path d="M0 0 C3.4024854 1.38914422 4.9603642 2.9405463 7 6 C6.67 6.66 6.34 7.32 6 8 C5.01 8.33 4.02 8.66 3 9 C2.95875 10.051875 2.9175 11.10375 2.875 12.1875 C1.72098012 17.2157295 0.07439373 18.0290879 -4 21 C-4.33 21.66 -4.66 22.32 -5 23 C-3.35 23 -1.7 23 0 23 C-3 25 -3 25 -5.75 25 C-10.08519656 23.66609337 -12.87968271 21.24066011 -16 18 C-17.5547669 14.89046621 -17.28644437 12.43733239 -17 9 C-12.80626359 1.21163238 -8.68803779 -1.17777977 0 0 Z " fill="#0C2A5B" transform="translate(22,89)"/>
<path d="M0 0 C0 7.92 0 15.84 0 24 C-10.625 29 -10.625 29 -14 29 C-14 21.08 -14 13.16 -14 5 C-4 0 -4 0 0 0 Z " fill="#ED8AFB" transform="translate(46,162)"/>
<path d="M0 0 C0 7.59 0 15.18 0 23 C-11.75 29 -11.75 29 -14 29 C-14 21.08 -14 13.16 -14 5 C-12.246875 4.175 -10.49375 3.35 -8.6875 2.5 C-7.70136719 2.0359375 -6.71523437 1.571875 -5.69921875 1.09375 C-3 0 -3 0 0 0 Z " fill="#EE8AFC" transform="translate(186,162)"/>
<path d="M0 0 C4.70106371 1.56702124 9.39906723 3.15962689 14 5 C14 12.92 14 20.84 14 29 C9 28 9 28 0 24 C0 16.08 0 8.16 0 0 Z " fill="#EF8BFC" transform="translate(13,162)"/>
<path d="M0 0 C4.70106371 1.56702124 9.39906723 3.15962689 14 5 C14 12.92 14 20.84 14 29 C4 26 4 26 0 24 C0 16.08 0 8.16 0 0 Z " fill="#EF8BFD" transform="translate(153,162)"/>
<path d="M0 0 C0 7.59 0 15.18 0 23 C-11.75 28 -11.75 28 -14 28 C-14 20.41 -14 12.82 -14 5 C-4 0 -4 0 0 0 Z " fill="#ED8AFB" transform="translate(46,17)"/>
<path d="M0 0 C0 7.59 0 15.18 0 23 C-10.625 28 -10.625 28 -14 28 C-14 20.41 -14 12.82 -14 5 C-5 0 -5 0 0 0 Z " fill="#EB89F9" transform="translate(186,17)"/>
<path d="M0 0 C5 1 5 1 14 5 C14 12.59 14 20.18 14 28 C4 25 4 25 0 23 C0 15.41 0 7.82 0 0 Z " fill="#ED8BFB" transform="translate(153,17)"/>
<path d="M0 0 C5 1 5 1 14 5 C14 12.59 14 20.18 14 28 C4 25 4 25 0 23 C0 15.41 0 7.82 0 0 Z " fill="#ED8BFB" transform="translate(13,17)"/>
<path d="M0 0 C1.2065625 0.0309375 1.2065625 0.0309375 2.4375 0.0625 C3.83394215 2.8553843 3.61920202 5.23409588 3.68359375 8.35546875 C3.71646484 9.62583984 3.74933594 10.89621094 3.78320312 12.20507812 C3.84583673 14.88209667 3.90129742 17.55909857 3.95507812 20.23632812 C4.00631836 22.15155273 4.00631836 22.15155273 4.05859375 24.10546875 C4.0836499 25.27102295 4.10870605 26.43657715 4.13452148 27.63745117 C4.46609728 31.38578064 5.29865052 34.48704233 6.4375 38.0625 C4.9525 37.5675 4.9525 37.5675 3.4375 37.0625 C-1.22568279 36.60978993 -1.22568279 36.60978993 -5.4375 38.25 C-6.82479035 40.4850789 -7.21237213 42.47155378 -7.5625 45.0625 C-7.8925 45.0625 -8.2225 45.0625 -8.5625 45.0625 C-9.5625 37.4375 -9.5625 37.4375 -9.5625 34.0625 C-6.22916667 31.0625 -6.22916667 31.0625 -3.5625 31.0625 C-3.56773682 30.15894775 -3.57297363 29.25539551 -3.57836914 28.32446289 C-3.59537686 24.98298511 -3.60793333 21.64155308 -3.61743164 18.30004883 C-3.62247101 16.85179927 -3.62930253 15.40355483 -3.63793945 13.95532227 C-3.65002247 11.87775412 -3.65573211 9.80025303 -3.66015625 7.72265625 C-3.66539307 6.47105713 -3.67062988 5.21945801 -3.67602539 3.92993164 C-3.52383699 0.08594724 -3.52383699 0.08594724 0 0 Z " fill="#0B2B5A" transform="translate(99.5625,142.9375)"/>
<path d="M0 0 C1.8871875 0.0309375 1.8871875 0.0309375 3.8125 0.0625 C3.83719575 4.15591499 3.85535793 8.24930121 3.86743164 12.34277344 C3.8724643 13.73568477 3.87929098 15.1285908 3.88793945 16.52148438 C3.90005152 18.52211246 3.90520412 20.52277888 3.91015625 22.5234375 C3.91539307 23.72790527 3.92062988 24.93237305 3.92602539 26.17333984 C3.8125 29.0625 3.8125 29.0625 2.8125 31.0625 C1.14638095 31.105221 -0.52132885 31.10313832 -2.1875 31.0625 C-3.89834501 29.35165499 -3.31764689 27.11889907 -3.3203125 24.78515625 C-3.32160156 23.71458984 -3.32289062 22.64402344 -3.32421875 21.54101562 C-3.32035156 20.41373047 -3.31648438 19.28644531 -3.3125 18.125 C-3.31636719 17.00158203 -3.32023437 15.87816406 -3.32421875 14.72070312 C-3.32228516 13.11291992 -3.32228516 13.11291992 -3.3203125 11.47265625 C-3.31862061 9.98971069 -3.31862061 9.98971069 -3.31689453 8.47680664 C-3.1875 6.0625 -3.1875 6.0625 -2.1875 4.0625 C-2.826875 3.93875 -3.46625 3.815 -4.125 3.6875 C-4.805625 3.48125 -5.48625 3.275 -6.1875 3.0625 C-6.5175 2.4025 -6.8475 1.7425 -7.1875 1.0625 C-4.43671116 0.14557039 -2.82801087 -0.04636083 0 0 Z " fill="#032456" transform="translate(99.1875,25.9375)"/>
<path d="M0 0 C2.375 1.625 2.375 1.625 4 4 C4.61195145 7.6717087 4.48706506 9.28813568 2.375 12.375 C-0.71186432 14.48706506 -2.3282913 14.61195145 -6 14 C-8.375 12.375 -8.375 12.375 -10 10 C-10.61195145 6.3282913 -10.48706506 4.71186432 -8.375 1.625 C-5.28813568 -0.48706506 -3.6717087 -0.61195145 0 0 Z " fill="#69F275" transform="translate(184,94)"/>
<path d="M0 0 C2.4375 2.125 2.4375 2.125 4 5 C4 8.52397438 3.68152223 10.24275308 1.3125 12.875 C-1.69253713 14.33690996 -3.69677822 14.42168789 -7 14 C-8.875 13 -8.875 13 -10 11 C-10.46534882 8.24237735 -10.51052409 5.75338836 -10 3 C-7.2230264 -0.41781366 -4.23025355 -0.70504226 0 0 Z " fill="#68F075" transform="translate(21,94)"/>
<path d="M0 0 C0.99 0.66 1.98 1.32 3 2 C3.39804898 5.0848796 3.62369809 7.04472025 3 10 C0.8125 12.5625 0.8125 12.5625 -2 14 C-4.83262075 13.93255665 -6.38969703 13.35776381 -8.8125 11.9375 C-10.83793908 8.63283625 -10.36377623 5.81965045 -10 2 C-6.31282562 -0.45811625 -4.35654296 -0.31118164 0 0 Z " fill="#69F475" transform="translate(103,179)"/>
<path d="M0 0 C2 2 2 2 2.375 5.9375 C2.28635216 8.80551846 2.21085143 9.72167611 0.4375 12.0625 C-3.0211441 13.39274773 -5.4440159 12.85607025 -9 12 C-11 10 -11 10 -11.375 6.0625 C-11.28635216 3.19448154 -11.21085143 2.27832389 -9.4375 -0.0625 C-5.9788559 -1.39274773 -3.5559841 -0.85607025 0 0 Z " fill="#6AF576" transform="translate(104,13)"/>
<path d="M0 0 C1.35700647 2.71401294 1.1123861 4.84846316 1.09765625 7.8828125 C1.09443359 9.04941406 1.09121094 10.21601563 1.08789062 11.41796875 C1.07951172 12.64128906 1.07113281 13.86460937 1.0625 15.125 C1.05798828 16.35605469 1.05347656 17.58710938 1.04882812 18.85546875 C1.0370133 21.90369392 1.02054028 24.95182314 1 28 C1.99 28 2.98 28 4 28 C4 20.41 4 12.82 4 5 C4.33 5 4.66 5 5 5 C5 12.92 5 20.84 5 29 C7.97 29.99 10.94 30.98 14 32 C16 34 16 34 16.125 36.625 C16.08375 37.40875 16.0425 38.1925 16 39 C14.6623151 38.61913138 13.33007114 38.21916026 12 37.8125 C10.88625 37.48185547 10.88625 37.48185547 9.75 37.14453125 C8.8425 36.76683594 7.935 36.38914063 7 36 C6.31429932 35.77135254 5.62859863 35.54270508 4.92211914 35.30712891 C2.29414525 34.15139214 0.83177579 33.23222188 -1 31 C-2.04617636 25.89940411 -1.79726189 20.91356687 -1.5625 15.75 C-1.53092333 14.33601295 -1.50289153 12.92194201 -1.47851562 11.5078125 C-1.24576032 1.24576032 -1.24576032 1.24576032 0 0 Z " fill="#163061" transform="translate(8,157)"/>
<path d="M0 0 C0.5775 0.20625 1.155 0.4125 1.75 0.625 C0.12789404 5.32910729 -1.10251842 5.05125921 -6.25 7.625 C-6.58 15.215 -6.91 22.805 -7.25 30.625 C-8.24 30.625 -9.23 30.625 -10.25 30.625 C-10.58 23.035 -10.91 15.445 -11.25 7.625 C-13.23 6.635 -15.21 5.645 -17.25 4.625 C-16.26 3.305 -15.27 1.985 -14.25 0.625 C-12.39375 0.934375 -12.39375 0.934375 -10.5 1.25 C-6.40001144 1.78415344 -3.69395141 -0.61565857 0 0 Z " fill="#052556" transform="translate(178.25,160.375)"/>
<path d="M0 0 C0.53625 0.226875 1.0725 0.45375 1.625 0.6875 C1.625 1.6775 1.625 2.6675 1.625 3.6875 C0.33586513 4.35904933 -0.95640204 5.02458859 -2.25 5.6875 C-2.96929687 6.05875 -3.68859375 6.43 -4.4296875 6.8125 C-6.375 7.6875 -6.375 7.6875 -8.375 7.6875 C-8.375 14.9475 -8.375 22.2075 -8.375 29.6875 C-9.365 30.0175 -10.355 30.3475 -11.375 30.6875 C-11.375 22.7675 -11.375 14.8475 -11.375 6.6875 C-13.025 6.6875 -14.675 6.6875 -16.375 6.6875 C-16.375 6.0275 -16.375 5.3675 -16.375 4.6875 C-15.715 4.6875 -15.055 4.6875 -14.375 4.6875 C-14.375 4.0275 -14.375 3.3675 -14.375 2.6875 C-13.075625 2.7803125 -13.075625 2.7803125 -11.75 2.875 C-8.29747829 2.90714484 -8.29747829 2.90714484 -5.25 1.125 C-2.375 -0.3125 -2.375 -0.3125 0 0 Z " fill="#021F50" transform="translate(179.375,14.3125)"/>
<path d="M0 0 C0.66 0.33 1.32 0.66 2 1 C2.71169687 7.76112026 2.71169687 7.76112026 0.83984375 11.01953125 C-1.96438833 14.42620705 -4.5425691 17.13025738 -9 18 C-13.49340731 17.76350488 -16.80396295 17.32387854 -20 14 C-20 13.01 -20 12.02 -20 11 C-19.34 11 -18.68 11 -18 11 C-18 10.34 -18 9.68 -18 9 C-17.195625 9.495 -17.195625 9.495 -16.375 10 C-13.37065456 11.26498755 -11.23232558 11.34386442 -8 11 C-6.31201173 9.56249809 -6.31201173 9.56249809 -5 8 C-4.01 8 -3.02 8 -2 8 C-1.34 5.36 -0.68 2.72 0 0 Z " fill="#0A2659" transform="translate(192,96)"/>
<path d="M0 0 C3.31595143 4.42126857 3.56127226 7.17559094 3.75 12.4375 C3.79253906 13.18837891 3.83507812 13.93925781 3.87890625 14.71289062 C4.0748671 18.83895523 3.8337835 21.83108251 3 26 C-0.3 26.66 -3.6 27.32 -7 28 C-7.33 26.68 -7.66 25.36 -8 24 C-4.91190305 22.23537317 -3.76687864 22 0 22 C0 14.74 0 7.48 0 0 Z " fill="#0B285A" transform="translate(187,164)"/>
<path d="M0 0 C-2.15005085 2.36505594 -3.93707318 4.00661833 -7 5 C-12.47282534 4.73518587 -16.1875746 3.76714461 -21 1 C-19.4964258 -2.00714839 -17.19325759 -2.37821436 -14.12109375 -3.45703125 C-8.77978966 -4.8243264 -4.61932049 -2.52962789 0 0 Z " fill="#36E4D8" transform="translate(179,158)"/>
<path d="M0 0 C0 0.66 0 1.32 0 2 C-1.4096347 2.70180531 -2.82807641 3.38593958 -4.25 4.0625 C-5.03890625 4.44535156 -5.8278125 4.82820313 -6.640625 5.22265625 C-9.34875901 6.1149057 -10.36220731 5.96300368 -13 5 C-13.70640625 4.75121094 -14.4128125 4.50242187 -15.140625 4.24609375 C-15.83671875 3.97925781 -16.5328125 3.71242188 -17.25 3.4375 C-17.95640625 3.16808594 -18.6628125 2.89867187 -19.390625 2.62109375 C-19.92171875 2.41613281 -20.4528125 2.21117187 -21 2 C-21 1.34 -21 0.68 -21 0 C-12.95596426 -3.86113715 -8.17721178 -3.38367384 0 0 Z " fill="#35E2D7" transform="translate(180,12)"/>
<path d="M0 0 C-3.79916278 3.09561412 -6.91841156 5.13286735 -11.9375 4.8125 C-15.24533773 3.9349104 -18.00427104 2.64051824 -21 1 C-19.4964258 -2.00714839 -17.19325759 -2.37821436 -14.12109375 -3.45703125 C-8.77978966 -4.8243264 -4.61932049 -2.52962789 0 0 Z " fill="#37E7DA" transform="translate(40,158)"/>
<path d="M0 0 C-3.27327925 3.79011281 -6.50220894 4.86383718 -11.4375 5.3125 C-15.29405078 4.97420607 -17.68336594 3.94144433 -21 2 C-21 1.34 -21 0.68 -21 0 C-13.29515738 -3.43966188 -7.88140773 -3.69440987 0 0 Z " fill="#36E5D9" transform="translate(40,12)"/>
<path d="M0 0 C0 0.66 0 1.32 0 2 C0.66 2.33 1.32 2.66 2 3 C1.34 3 0.68 3 0 3 C0 7.62 0 12.24 0 17 C-0.33 17 -0.66 17 -1 17 C-1.33 13.04 -1.66 9.08 -2 5 C-2.33 5 -2.66 5 -3 5 C-3.33 12.59 -3.66 20.18 -4 28 C-4.66 27.67 -5.32 27.34 -6 27 C-5.67 19.08 -5.34 11.16 -5 3 C-8.3 2.01 -11.6 1.02 -15 0 C-15 -0.66 -15 -1.32 -15 -2 C-9.70264891 -3.83369845 -4.94999722 -2.18382231 0 0 Z " fill="#163065" transform="translate(32,164)"/>
<path d="M0 0 C0 1.65 0 3.3 0 5 C-0.969375 5.309375 -1.93875 5.61875 -2.9375 5.9375 C-6.14945448 7.62081517 -6.14945448 7.62081517 -6.62109375 10.203125 C-6.85372996 12.47938084 -6.99040853 14.71243399 -7 17 C-7.33 17 -7.66 17 -8 17 C-8.33 14.36 -8.66 11.72 -9 9 C-9.33 9 -9.66 9 -10 9 C-10.33 16.59 -10.66 24.18 -11 32 C-11.66 31.67 -12.32 31.34 -13 31 C-12.67 23.41 -12.34 15.82 -12 8 C-13.32 7.67 -14.64 7.34 -16 7 C-16 6.34 -16 5.68 -16 5 C-12.125 4 -12.125 4 -11 4 C-10.4225 3.71125 -9.845 3.4225 -9.25 3.125 C-3 0 -3 0 0 0 Z " fill="#142E63" transform="translate(39,14)"/>
<path d="M0 0 C0 0.99 0 1.98 0 3 C-1.51293945 4.25854492 -1.51293945 4.25854492 -3.61328125 5.48046875 C-4.7434668 6.14272461 -4.7434668 6.14272461 -5.89648438 6.81835938 C-7.09241211 7.49608398 -7.09241211 7.49608398 -8.3125 8.1875 C-9.09818359 8.65091797 -9.88386719 9.11433594 -10.69335938 9.59179688 C-16.5912072 13 -16.5912072 13 -20 13 C-17.29969297 6.92430918 -14.08064188 3.57981165 -7.875 1.125 C-6.29332031 0.47917969 -6.29332031 0.47917969 -4.6796875 -0.1796875 C-2 -1 -2 -1 0 0 Z " fill="#062355" transform="translate(94,65)"/>
<path d="M0 0 C0.33 0 0.66 0 1 0 C1.33 1.98 1.66 3.96 2 6 C2.99 5.01 3.98 4.02 5 3 C5.20625 4.11375 5.4125 5.2275 5.625 6.375 C6.61628301 10.26599195 6.61628301 10.26599195 10.125 11.4375 C11.07375 11.623125 12.0225 11.80875 13 12 C12.33333333 13.33333333 11.66666667 14.66666667 11 16 C12.65 16 14.3 16 16 16 C13 18 13 18 10.25 18 C5.91480344 16.66609337 3.12031729 14.24066011 0 11 C-1.49297212 8.01405576 -1.11755228 5.29146376 -1 2 C-0.67 1.34 -0.34 0.68 0 0 Z " fill="#173461" transform="translate(6,96)"/>
<path d="M0 0 C0.45375 0.495 0.9075 0.99 1.375 1.5 C2.87635519 3.22609337 2.87635519 3.22609337 5 3 C5.103125 4.093125 5.20625 5.18625 5.3125 6.3125 C5.97307727 9.85559629 6.2027092 10.93243723 9 13 C8.67 13.66 8.34 14.32 8 15 C7.01 15 6.02 15 5 15 C6.32 15.66 7.64 16.32 9 17 C9 17.66 9 18.32 9 19 C4.53738043 17.85246925 2.42176831 15.72059869 -0.05859375 12.01171875 C-1.68075735 8.54526957 -1.38414514 5.7774272 -1 2 C-0.67 1.34 -0.34 0.68 0 0 Z " fill="#455653" transform="translate(88,13)"/>
<path d="M0 0 C-1 3 -1 3 -4.4375 4.75 C-6.66778183 5.91998391 -7.76956976 6.53913953 -8.90625 8.8125 C-9.52576092 10.95022163 -9.52576092 10.95022163 -10 14 C-10.33 14 -10.66 14 -11 14 C-11.33 12.35 -11.66 10.7 -12 9 C-12.33 9 -12.66 9 -13 9 C-13.3125 6.25 -13.3125 6.25 -13 3 C-8.96742877 -1.91469619 -5.71966575 -1.16332185 0 0 Z " fill="#092858" transform="translate(102,8)"/>
<path d="M0 0 C0.99 0 1.98 0 3 0 C3.33 7.26 3.66 14.52 4 22 C3.34 22 2.68 22 2 22 C1.34 22.66 0.68 23.32 0 24 C0 16.08 0 8.16 0 0 Z " fill="#001D4D" transform="translate(28,167)"/>
<path d="M0 0 C0 7.92 0 15.84 0 24 C-0.99 24 -1.98 24 -3 24 C-3 16.41 -3 8.82 -3 1 C-1 0 -1 0 0 0 Z " fill="#001B4B" transform="translate(171,167)"/>
<path d="M0 0 C0.99 0 1.98 0 3 0 C3.0867982 3.79152334 3.14032207 7.58279296 3.1875 11.375 C3.21263672 12.45523438 3.23777344 13.53546875 3.26367188 14.6484375 C3.27333984 15.6796875 3.28300781 16.7109375 3.29296875 17.7734375 C3.3086792 18.72653809 3.32438965 19.67963867 3.34057617 20.66162109 C3.22818604 21.43328613 3.1157959 22.20495117 3 23 C2.01 23.66 1.02 24.32 0 25 C-0.99 24.67 -1.98 24.34 -3 24 C-1.68 23.67 -0.36 23.34 1 23 C0.67 15.41 0.34 7.82 0 0 Z " fill="#E389F1" transform="translate(183,162)"/>
<path d="M0 0 C0 0.33 0 0.66 0 1 C-2.31 1.33 -4.62 1.66 -7 2 C-7.0825 2.598125 -7.165 3.19625 -7.25 3.8125 C-8.23275289 6.6788626 -9.35827876 7.56592275 -12 9 C-14.25 8.6875 -14.25 8.6875 -16 8 C-15.10368306 4.98511576 -14.32087126 3.28197778 -11.9375 1.1875 C-7.9099584 -0.44065511 -4.28776332 -0.25222137 0 0 Z " fill="#163260" transform="translate(186,89)"/>
<path d="M0 0 C0.99 0 1.98 0 3 0 C3 7.92 3 15.84 3 24 C2.01 23.67 1.02 23.34 0 23 C0 15.41 0 7.82 0 0 Z " fill="#E58FF7" transform="translate(164,167)"/>
<path d="M0 0 C2.97 0.99 5.94 1.98 9 3 C8.01 3.66 7.02 4.32 6 5 C6 5.99 6 6.98 6 8 C6.99 8.33 7.98 8.66 9 9 C1.11735941 8.24205379 1.11735941 8.24205379 -2 5 C-2 4.01 -2 3.02 -2 2 C-1.34 2 -0.68 2 0 2 C0 1.34 0 0.68 0 0 Z " fill="#14325D" transform="translate(174,105)"/>
<path d="M0 0 C3.16268055 4.2169074 3.39369518 4.98459375 3.3125 9.9375 C3.30863281 10.95714844 3.30476562 11.97679687 3.30078125 13.02734375 C2.99644886 16.03509637 2.26248479 18.26880782 1 21 C0.67 21 0.34 21 0 21 C0 14.07 0 7.14 0 0 Z " fill="#001C4E" transform="translate(187,164)"/>
<path d="M0 0 C4.01840251 2.06350399 6.15903905 3.83361468 8 8 C8.1875 11.3125 8.1875 11.3125 8 14 C7.731875 13.360625 7.46375 12.72125 7.1875 12.0625 C6.11332248 9.66868314 6.11332248 9.66868314 3 9 C2.67 10.32 2.34 11.64 2 13 C2 10.36 2 7.72 2 5 C1.34 4.67 0.68 4.34 0 4 C0 2.68 0 1.36 0 0 Z " fill="#304B71" transform="translate(104,174)"/>
<path d="M0 0 C0.66 0.33 1.32 0.66 2 1 C-1.34969325 6.90184049 -1.34969325 6.90184049 -4 9 C-4.99 9 -5.98 9 -7 9 C-7.33 9.66 -7.66 10.32 -8 11 C-8 8.69 -8 6.38 -8 4 C-7.4225 3.896875 -6.845 3.79375 -6.25 3.6875 C-3.67950842 2.90207202 -2.06342716 1.69495803 0 0 Z " fill="#193561" transform="translate(110,21)"/>
<path d="M0 0 C0.66 0.33 1.32 0.66 2 1 C-1.14285714 8.42857143 -1.14285714 8.42857143 -3 12 C-3.66 12 -4.32 12 -5 12 C-5.3125 8.8125 -5.3125 8.8125 -5 5 C-2.5 2.0625 -2.5 2.0625 0 0 Z " fill="#001B52" transform="translate(12,91)"/>
<path d="M0 0 C3.63 0.33 7.26 0.66 11 1 C11 2.32 11 3.64 11 5 C7.37 4.67 3.74 4.34 0 4 C0 2.68 0 1.36 0 0 Z " fill="#042456" transform="translate(166,4)"/>
<path d="M0 0 C1.51953125 1.17578125 1.51953125 1.17578125 3 3 C3.07421875 5.48046875 3.07421875 5.48046875 2.6875 8.1875 C2.56761719 9.08855469 2.44773437 9.98960938 2.32421875 10.91796875 C2.21722656 11.60503906 2.11023438 12.29210938 2 13 C0.08854396 11.39538295 -0.91104348 10.53479815 -1.328125 8.02734375 C-1.11111111 2.22222222 -1.11111111 2.22222222 0 0 Z " fill="#28436E" transform="translate(88,13)"/>
<path d="M0 0 C0.33 0.66 0.66 1.32 1 2 C1.66 2 2.32 2 3 2 C3 3.32 3 4.64 3 6 C0.42318365 7.96062113 -2.1070894 9.5535447 -5 11 C-4.55123384 9.35153231 -4.09069512 7.70626545 -3.625 6.0625 C-3.36976562 5.14597656 -3.11453125 4.22945312 -2.8515625 3.28515625 C-2 1 -2 1 0 0 Z " fill="#021E54" transform="translate(109,15)"/>
<path d="M0 0 C0 1.65 0 3.3 0 5 C-2.31 5.33 -4.62 5.66 -7 6 C-7 5.34 -7 4.68 -7 4 C-8.32 3.67 -9.64 3.34 -11 3 C-9.54293274 2.49632243 -8.08429904 1.99717444 -6.625 1.5 C-5.81289063 1.2215625 -5.00078125 0.943125 -4.1640625 0.65625 C-2 0 -2 0 0 0 Z " fill="#093662" transform="translate(39,14)"/>
<path d="M0 0 C0 0.66 0 1.32 0 2 C1.65 1.67 3.3 1.34 5 1 C4 3 4 3 1.93359375 3.8515625 C0.69802734 4.23441406 0.69802734 4.23441406 -0.5625 4.625 C-1.38878906 4.88539063 -2.21507812 5.14578125 -3.06640625 5.4140625 C-3.70449219 5.60742188 -4.34257812 5.80078125 -5 6 C-4.67 4.35 -4.34 2.7 -4 1 C-4.66 0.67 -5.32 0.34 -6 0 C-3 -1 -3 -1 0 0 Z " fill="#193564" transform="translate(180,190)"/>
<path d="M0 0 C0.33 0 0.66 0 1 0 C1.1953125 2.05078125 1.390625 4.1015625 1.5859375 6.15234375 C1.72257812 6.76207031 1.85921875 7.37179688 2 8 C2.66 8.33 3.32 8.66 4 9 C3.01 9.99 2.02 10.98 1 12 C-0.32 11.34 -1.64 10.68 -3 10 C-2.67 8.35 -2.34 6.7 -2 5 C-1.34 5 -0.68 5 0 5 C0 3.35 0 1.7 0 0 Z " fill="#1C4161" transform="translate(92,183)"/>
<path d="M0 0 C0.66 0.33 1.32 0.66 2 1 C2.49230769 8.38461538 2.49230769 8.38461538 0 11.5 C-0.66 11.995 -1.32 12.49 -2 13 C-2.625 10.625 -2.625 10.625 -3 8 C-2.34 7.34 -1.68 6.68 -1 6 C-0.60235737 4.01178687 -0.26224651 2.01055661 0 0 Z " fill="#38537A" transform="translate(192,96)"/>
<path d="M0 0 C0.99 0.33 1.98 0.66 3 1 C1.8125 3.4375 1.8125 3.4375 0 6 C-2.6875 6.8125 -2.6875 6.8125 -5 7 C-3.70700306 4.11562221 -2.34058637 2.12780579 0 0 Z " fill="#022153" transform="translate(79,71)"/>
<path d="M0 0 C4.48525648 0.656379 8.66914029 1.70074209 13 3 C11.1875 4.0625 11.1875 4.0625 9 5 C8.01 4.67 7.02 4.34 6 4 C3.85744207 4.38932856 3.85744207 4.38932856 2 5 C2 4.01 2 3.02 2 2 C1.34 1.34 0.68 0.68 0 0 Z " fill="#021D50" transform="translate(19,15)"/>
<path d="M0 0 C-0.99 0.33 -1.98 0.66 -3 1 C-3 1.66 -3 2.32 -3 3 C-5.9375 2.625 -5.9375 2.625 -9 2 C-9.33 1.34 -9.66 0.68 -10 0 C-6.7169902 -1.6415049 -3.57454967 -0.51888624 0 0 Z " fill="#001A51" transform="translate(102,193)"/>
<path d="M0 0 C2 3 2 3 1.625 6.1875 C1.41875 7.115625 1.2125 8.04375 1 9 C-0.5 7.75 -0.5 7.75 -2 6 C-2 4.68 -2 3.36 -2 2 C-1.34 2 -0.68 2 0 2 C0 1.34 0 0.68 0 0 Z " fill="#001950" transform="translate(109,181)"/>
<path d="M0 0 C-0.20625 0.61875 -0.4125 1.2375 -0.625 1.875 C-0.74875 2.57625 -0.8725 3.2775 -1 4 C-0.34 4.66 0.32 5.32 1 6 C-0.65 6.33 -2.3 6.66 -4 7 C-4 5 -4 3 -4 1 C-2 0 -2 0 0 0 Z " fill="#1B3464" transform="translate(41,188)"/>
<path d="M0 0 C0.66 0.33 1.32 0.66 2 1 C1.01 4.3 0.02 7.6 -1 11 C-1.33 11 -1.66 11 -2 11 C-3.35384615 4.6 -3.35384615 4.6 -1.5625 1.5625 C-1.046875 1.046875 -0.53125 0.53125 0 0 Z " fill="#011A53" transform="translate(93,177)"/>
<path d="M0 0 C0 0.99 0 1.98 0 3 C0.66 3.33 1.32 3.66 2 4 C2 4.66 2 5.32 2 6 C-3.75 4.25 -3.75 4.25 -6 2 C-2.25 0 -2.25 0 0 0 Z " fill="#34D9D1" transform="translate(164,156)"/>
<path d="M0 0 C2.97 0.495 2.97 0.495 6 1 C6 1.99 6 2.98 6 4 C4.35 4.33 2.7 4.66 1 5 C1.33 3.68 1.66 2.36 2 1 C1.34 0.67 0.68 0.34 0 0 Z " fill="#39ECDF" transform="translate(172,156)"/>
<path d="M0 0 C0.33 0.66 0.66 1.32 1 2 C1.66 2 2.32 2 3 2 C2.67 4.64 2.34 7.28 2 10 C1.67 10 1.34 10 1 10 C0.855625 9.2575 0.71125 8.515 0.5625 7.75 C0.21921582 6.07172178 -0.16651881 4.40053228 -0.625 2.75 C-0.74875 2.1725 -0.8725 1.595 -1 1 C-0.67 0.67 -0.34 0.34 0 0 Z " fill="#001651" transform="translate(90,12)"/>
</svg>
