<?xml version="1.0" standalone="no"?>
<!DOCTYPE svg PUBLIC "-//W3C//DTD SVG 20010904//EN"
 "http://www.w3.org/TR/2001/REC-SVG-20010904/DTD/svg10.dtd">
<svg version="1.0" xmlns="http://www.w3.org/2000/svg"
 width="500.000000pt" height="500.000000pt" viewBox="0 0 500.000000 500.000000"
 preserveAspectRatio="xMidYMid meet">

<g transform="translate(0.000000,500.000000) scale(0.100000,-0.100000)"
fill="#000000" stroke="none">
<path d="M2412 3919 c-53 -26 -87 -70 -103 -131 -26 -97 39 -206 140 -236 47
-15 56 -15 105 -1 51 14 119 79 136 128 54 165 -122 317 -278 240z"/>
<path d="M971 3659 c-241 -51 -458 -173 -632 -356 -185 -195 -292 -421 -329
-696 -40 -303 52 -635 245 -887 254 -331 676 -513 1092 -472 359 36 585 174
900 549 l94 113 -132 170 c-72 93 -135 170 -139 170 -4 0 -22 -19 -40 -42
-240 -303 -423 -445 -639 -499 -70 -18 -104 -20 -200 -16 -136 6 -206 23 -316
77 -410 203 -555 731 -306 1113 51 78 139 170 206 217 218 150 500 181 745 80
214 -88 297 -180 1090 -1200 393 -507 624 -676 990 -725 133 -18 219 -18 346
0 605 86 1054 601 1054 1210 0 588 -418 1089 -1001 1200 -163 30 -433 17 -589
-30 -138 -42 -317 -153 -448 -279 -97 -93 -294 -324 -289 -340 5 -16 251 -335
259 -335 3 -1 46 47 94 107 258 313 447 434 704 449 400 23 747 -249 816 -640
18 -103 18 -161 0 -264 -55 -310 -278 -547 -590 -625 -67 -16 -102 -19 -201
-15 -66 3 -147 12 -180 21 -93 26 -213 89 -287 150 -97 80 -315 338 -578 682
-41 54 -173 222 -294 373 -313 394 -481 556 -683 660 -64 32 -187 71 -277 87
-121 21 -368 18 -485 -7z"/>
<path d="M1152 2649 c-70 -21 -132 -114 -132 -195 1 -94 106 -194 202 -194 75
1 163 68 188 145 25 75 -8 170 -76 218 -45 32 -126 43 -182 26z"/>
<path d="M3710 2644 c-53 -23 -98 -72 -116 -126 -13 -41 -14 -57 -4 -99 24
-98 126 -170 218 -155 165 26 231 231 110 343 -54 51 -141 66 -208 37z"/>
<path d="M2435 1366 c-74 -28 -135 -116 -135 -196 1 -37 33 -102 68 -135 61
-58 147 -70 222 -31 137 70 147 259 17 340 -55 34 -117 42 -172 22z"/>
</g>
</svg>
