<?xml version="1.0" encoding="UTF-8"?>
<svg version="1.1" xmlns="http://www.w3.org/2000/svg" width="500" height="500">
<path d="M0 0 C1.21913086 -0.00807175 2.43826172 -0.01614349 3.69433594 -0.02445984 C6.27635294 -0.03825768 8.85838786 -0.04899895 11.44042969 -0.05688477 C14.0348866 -0.0683148 16.62932172 -0.08862069 19.22363281 -0.1184082 C82.79021059 -0.84648713 144.66721068 24.75534751 190.35546875 69.04296875 C207.34782056 85.70241301 207.34782056 85.70241301 214.375 95.23828125 C214.75736816 95.74955566 215.13973633 96.26083008 215.53369141 96.78759766 C244.69866991 135.90853879 266.30784056 183.85395172 266.61328125 233.30078125 C266.621353 234.5643042 266.62942474 235.82782715 266.63774109 237.12963867 C266.65154169 239.80586356 266.66256541 242.48196719 266.67016602 245.15820312 C266.67892661 247.85003655 266.70190841 250.54061015 266.73168945 253.23242188 C266.99868961 277.42054748 264.4278099 300.07732242 257.375 323.23828125 C257.13974609 324.01526367 256.90449219 324.79224609 256.66210938 325.59277344 C248.35383313 352.39189668 234.80033117 379.18375843 217.375 401.23828125 C216.76785156 402.03492188 216.16070312 402.8315625 215.53515625 403.65234375 C208.4730896 412.75071183 200.53140268 421.11987423 192.375 429.23828125 C191.40343383 430.24202625 190.43346469 431.24731879 189.46484375 432.25390625 C182.58432331 439.35162586 175.54620521 445.62984387 167.375 451.23828125 C166.62186523 451.76035156 165.86873047 452.28242188 165.09277344 452.8203125 C153.23136802 461.0082402 141.19553156 468.64051226 128.375 475.23828125 C127.69050781 475.59083984 127.00601562 475.94339844 126.30078125 476.30664062 C110.80007787 484.17509291 94.47124276 490.07378831 77.6875 494.55078125 C76.83526855 494.78104004 75.98303711 495.01129883 75.10498047 495.24853516 C72.20687837 495.98563409 69.30219053 496.62623232 66.375 497.23828125 C65.10285645 497.50825928 63.83071289 497.7782373 62.52001953 498.05639648 C48.67233021 500.73567963 34.77311176 500.73389785 20.71582031 500.68432617 C17.99545463 500.67515439 15.27594892 500.68203693 12.55566406 500.70483398 C-4.56128203 500.84734616 -20.89261946 500.04194248 -37.625 496.23828125 C-38.87812988 495.955896 -40.13125977 495.67351074 -41.42236328 495.38256836 C-44.41107476 494.65275616 -47.35993463 493.85170406 -50.3125 492.98828125 C-51.3452002 492.69163574 -52.37790039 492.39499023 -53.44189453 492.08935547 C-63.45489967 489.13093255 -73.07726399 485.44808992 -82.625 481.23828125 C-83.41036133 480.89571289 -84.19572266 480.55314453 -85.00488281 480.20019531 C-122.09206904 463.85746397 -157.17223078 437.79566147 -181.625 405.23828125 C-182.800625 403.67787109 -182.800625 403.67787109 -184 402.0859375 C-205.31788851 373.25247626 -220.71371876 340.89487573 -228.875 305.98828125 C-229.12137207 304.93568115 -229.36774414 303.88308105 -229.62158203 302.79858398 C-232.37348125 290.57478839 -233.93605697 278.56048624 -233.9609375 266.02734375 C-233.9675943 264.81670258 -233.9742511 263.6060614 -233.98110962 262.35873413 C-233.99115957 259.81257628 -233.99592904 257.2663925 -233.99560547 254.72021484 C-233.99995046 250.90676238 -234.03627845 247.09449654 -234.07421875 243.28125 C-234.24101425 206.80227523 -225.4933396 170.67504307 -208.625 138.23828125 C-208.25149414 137.51866211 -207.87798828 136.79904297 -207.49316406 136.05761719 C-199.34891755 120.54896458 -189.99043038 105.60062837 -178.625 92.23828125 C-177.7714535 91.20108163 -176.91864018 90.16327838 -176.06640625 89.125 C-170.36818303 82.25567865 -164.35021521 75.75969364 -158.0625 69.42578125 C-157.390979 68.74507568 -156.71945801 68.06437012 -156.02758789 67.36303711 C-147.14549531 58.53431608 -137.38003385 51.11838819 -126.9375 44.23828125 C-125.88949219 43.54476562 -124.84148437 42.85125 -123.76171875 42.13671875 C-115.5782305 36.7681896 -107.29092594 31.7806269 -98.625 27.23828125 C-98.00318848 26.90425293 -97.38137695 26.57022461 -96.74072266 26.22607422 C-67.46765528 10.53738756 -33.31648156 0.21361573 0 0 Z " fill="#000000" transform="translate(233.625,-0.23828125)"/>
<path d="M0 0 C1.71641813 1.4697774 3.42539011 2.948318 5.125 4.4375 C6.21941406 5.35015625 6.21941406 5.35015625 7.3359375 6.28125 C19.95884572 16.92124927 29.7929357 31.11406396 39.89624023 44.08764648 C42.91870718 47.95122312 46.02304311 51.73682812 49.16650391 55.50244141 C54.73851302 62.18055655 60.0728649 68.9643518 65.1875 76 C71.53909429 84.73543533 78.21294969 93.14081711 85.125 101.4375 C85.6003418 102.01193848 86.07568359 102.58637695 86.56542969 103.17822266 C89.25866668 106.43027335 91.9822604 109.6526584 94.74804688 112.84326172 C95.68511996 113.92820627 96.61589368 115.01861656 97.54101562 116.11376953 C108.47241007 129.0088211 121.08007292 138.39247437 138.125 141.4375 C157.85926604 142.90461883 175.33470576 139.74781491 190.9375 126.6875 C204.2677835 114.01761587 210.9434805 98.54820355 211.46850586 80.38452148 C211.65594171 65.44922572 208.16835089 53.60670478 199.125 41.4375 C198.61453125 40.73238281 198.1040625 40.02726562 197.578125 39.30078125 C188.4056419 27.74436071 173.49466709 19.98542384 159.125 17.4375 C147.56277699 16.41627727 135.73099655 16.29471315 125.125 21.4375 C123.75214844 22.07365234 123.75214844 22.07365234 122.3515625 22.72265625 C107.50186151 30.18910254 96.19249498 42.50295753 86.125 55.4375 C84.47483509 57.45214308 82.80248468 59.44548694 81.125 61.4375 C77.12731947 59.9102962 75.40380585 57.48567861 72.9375 54.0625 C72.15567458 52.98124503 71.37309907 51.90053211 70.58984375 50.8203125 C69.98825439 49.9854834 69.98825439 49.9854834 69.37451172 49.13378906 C68.11987697 47.43054517 66.82230466 45.77143675 65.50390625 44.1171875 C65.08455811 43.58399902 64.66520996 43.05081055 64.2331543 42.50146484 C63.05457457 41.00671494 61.86733346 39.51880656 60.6796875 38.03125 C59.125 35.4375 59.125 35.4375 59.0703125 33.4765625 C60.66190008 30.39949318 62.85224606 27.89749139 65.125 25.3125 C65.62193359 24.73846436 66.11886719 24.16442871 66.63085938 23.57299805 C67.64496863 22.40518177 68.66253654 21.24035965 69.68359375 20.07861328 C70.95429125 18.63186047 72.21251396 17.17417128 73.46875 15.71484375 C89.21106095 -2.28044286 108.18958337 -15.45947209 132.125 -19.5625 C160.28492119 -21.14451804 185.14579043 -17.93368818 208.125 -0.5625 C208.970625 0.05109375 209.81625 0.6646875 210.6875 1.296875 C230.3256395 16.14821799 243.27481695 38.34170536 247.6875 62.51953125 C248.27185113 67.75260431 248.30922786 72.92589638 248.3125 78.1875 C248.32474609 79.2084375 248.33699219 80.229375 248.34960938 81.28125 C248.39344287 104.30844346 239.64075205 125.77789641 225.125 143.4375 C224.05958984 144.75041016 224.05958984 144.75041016 222.97265625 146.08984375 C207.53899749 164.20276334 183.16903853 176.79089767 159.4309082 178.7409668 C155.55278381 178.87397241 151.6927495 178.90562662 147.8125 178.875 C146.79094315 178.86944092 146.79094315 178.86944092 145.74874878 178.86376953 C118.23685254 178.65074609 96.9643821 167.47238218 77.69921875 147.99609375 C70.41608183 140.48235619 63.84504626 132.50267018 57.48388672 124.20361328 C55.22128387 121.26296128 52.92132062 118.35184171 50.625 115.4375 C49.70426178 114.26575487 48.78368867 113.09387999 47.86328125 111.921875 C46.07021476 109.63967473 44.275882 107.35847944 42.48046875 105.078125 C36.11902574 96.99544658 29.79509993 88.8840514 23.484375 80.76171875 C22.93571777 80.05563477 22.38706055 79.34955078 21.82177734 78.62207031 C20.64442767 77.10625379 19.46771436 75.58994286 18.29150391 74.07324219 C-3.7564864 44.29798623 -3.7564864 44.29798623 -32.875 22.4375 C-33.53242188 22.10234375 -34.18984375 21.7671875 -34.8671875 21.421875 C-48.41812211 15.05231127 -66.78889901 15.37922422 -80.74609375 20.125 C-98.15650004 27.42824159 -110.32378312 39.54014812 -117.75 56.875 C-123.04239209 70.03588232 -123.54930661 88.10289044 -118.3125 101.375 C-111.0967002 118.20538299 -99.40818625 130.37089927 -82.703125 137.859375 C-75.03960971 140.71765908 -68.2606318 141.61898252 -60.125 141.625 C-59.2690625 141.63724609 -58.413125 141.64949219 -57.53125 141.66210938 C-48.49400749 141.68264856 -40.96434172 139.94705628 -32.9375 135.8125 C-31.89783081 135.28136597 -31.89783081 135.28136597 -30.8371582 134.73950195 C-15.13555279 126.47424713 -3.3000127 112.59870949 7.25390625 98.6171875 C8.18009766 97.53824219 8.18009766 97.53824219 9.125 96.4375 C9.785 96.4375 10.445 96.4375 11.125 96.4375 C12.32666016 97.73168945 12.32666016 97.73168945 13.6640625 99.55078125 C14.4063208 100.54984497 14.4063208 100.54984497 15.16357422 101.5690918 C15.68709473 102.2887915 16.21061523 103.00849121 16.75 103.75 C17.82811674 105.22136022 18.90624177 106.69271436 19.984375 108.1640625 C20.78004883 109.25509277 20.78004883 109.25509277 21.59179688 110.36816406 C22.9494509 112.20056462 24.34089472 113.99307516 25.765625 115.7734375 C26.50296875 116.71445312 27.2403125 117.65546875 28 118.625 C28.65742188 119.44355469 29.31484375 120.26210938 29.9921875 121.10546875 C31.125 123.4375 31.125 123.4375 30.69921875 125.7890625 C28.53250485 129.43430325 25.88643777 132.47333019 23.0625 135.625 C22.1796936 136.62128418 22.1796936 136.62128418 21.27905273 137.63769531 C20.09960367 138.96749634 18.91776401 140.29518137 17.73339844 141.62060547 C16.38449031 143.14437206 15.06719486 144.69604374 13.7578125 146.25390625 C4.04422704 157.67195104 -8.15611627 166.46409662 -21.875 172.4375 C-22.56142578 172.74091309 -23.24785156 173.04432617 -23.95507812 173.35693359 C-35.36220255 178.14782243 -46.64689829 178.99183682 -58.875 179 C-59.57896912 179.00290039 -60.28293823 179.00580078 -61.00823975 179.00878906 C-69.98930185 179.0045983 -78.27565037 178.13903011 -86.875 175.4375 C-87.62297852 175.20281006 -88.37095703 174.96812012 -89.14160156 174.72631836 C-91.11443674 174.06987927 -93.0576871 173.36654194 -95 172.625 C-95.68030273 172.36565674 -96.36060547 172.10631348 -97.06152344 171.83911133 C-102.73923516 169.60781108 -107.85702721 166.92580044 -112.875 163.4375 C-113.83921875 162.76847656 -114.8034375 162.09945312 -115.796875 161.41015625 C-137.75780553 145.55258078 -152.35395117 123.35476755 -157.40332031 96.64257812 C-161.31446485 70.06622953 -156.38338662 44.45050795 -140.875 22.4375 C-140.34261719 21.68082031 -139.81023437 20.92414063 -139.26171875 20.14453125 C-123.84800009 -0.64007744 -100.84797317 -15.05244039 -75.20703125 -19.1484375 C-47.87390774 -22.26522949 -21.63100736 -17.4895335 0 0 Z " fill="#FCFCFC" transform="translate(205.875,172.5625)"/>
<path d="M0 0 C3.5182158 2.53772943 6.14421203 4.59214542 7.70703125 8.734375 C8.46867032 13.96964148 8.6429807 19.10484251 5.70703125 23.671875 C2.2054239 27.77516699 -2.07789642 30.14926803 -7.375 31.11328125 C-12.50095985 31.41711443 -15.44319714 29.97168295 -19.29296875 26.734375 C-23.9157781 21.48686168 -24.64627875 18.3868311 -24.57421875 11.49609375 C-24.05447445 6.39249347 -21.42127667 3.77805982 -17.79296875 0.421875 C-12.35778891 -3.24687139 -5.72267671 -3.15868357 0 0 Z " fill="#F6F6F6" transform="translate(259.29296875,342.265625)"/>
<path d="M0 0 C5.00230198 2.45567552 8.49851535 5.9970307 11 11 C11.54360446 15.95482094 11.56437074 19.87125852 9.3125 24.375 C5.63659431 28.5476497 2.44466605 31.57844996 -3.234375 32.2734375 C-8.72753082 32.49521087 -12.32860571 32.09009892 -16.59375 28.46875 C-20.35405155 24.54132394 -21.21749331 20.85768954 -21.5 15.5625 C-21.34266728 10.05585463 -19.91593009 6.82866703 -16 3 C-11.50496556 -1.09841375 -5.75448335 -0.7616228 0 0 Z " fill="#F8F8F8" transform="translate(256,132)"/>
<path d="M0 0 C5.29620624 1.76540208 9.43261782 5.01419639 12 10 C13.08937231 15.69409497 13.10498596 21.12377106 9.8125 26.0625 C6.96463996 29.61554444 3.61870494 31.75817463 -0.90234375 32.43359375 C-5.58391954 32.43961894 -9.1565495 32.36147879 -13.5 30.5 C-17.89951295 26.10048705 -20.18287465 21.64351115 -20.5 15.375 C-20.27983199 10.96404786 -18.90898907 8.38071703 -16 5 C-10.57816818 0.22362435 -7.09579335 -0.63634018 0 0 Z " fill="#F8F8F8" transform="translate(359,236)"/>
<path d="M0 0 C4.43325632 2.48332307 6.96431534 5.79397425 8.8125 10.5 C9.83867132 15.76899503 8.77629725 20.05430413 5.8125 24.5 C0.34626031 29.89335649 -3.57521518 30.95814723 -11.12890625 30.921875 C-15.78592281 30.27952789 -18.28691409 28.06928386 -21.1875 24.5 C-24.44753616 19.60994575 -23.74350064 14.214842 -23.1875 8.5 C-21.18892685 3.94325321 -18.47514587 1.41276059 -14.10546875 -0.8046875 C-9.10097891 -2.61894247 -4.7646994 -2.00618922 0 0 Z " fill="#F9F9F9" transform="translate(154.1875,237.5)"/>
<path d="M0 0 C0.66 0.33 1.32 0.66 2 1 C-0.64 3.64 -3.28 6.28 -6 9 C-6 6 -6 6 -3.5625 3.375 C-2.716875 2.59125 -1.87125 1.8075 -1 1 C-0.67 0.67 -0.34 0.34 0 0 Z " fill="#CBCBCB" transform="translate(243,133)"/>
<path d="M0 0 C0.66 0.33 1.32 0.66 2 1 C-0.31 3.31 -2.62 5.62 -5 8 C-5.33 7.34 -5.66 6.68 -6 6 C-4 4 -2 2 0 0 Z " fill="#D1D1D1" transform="translate(138,238)"/>
</svg>
