<?xml version="1.0" encoding="UTF-8"?>
<svg version="1.1" xmlns="http://www.w3.org/2000/svg" width="700" height="700">
<path d="M0 0 C231 0 462 0 700 0 C700 231 700 462 700 700 C469 700 238 700 0 700 C0 469 0 238 0 0 Z " fill="#000000" transform="translate(0,0)"/>
<path d="M0 0 C1.68181724 1.6513771 3.34946124 3.31736 5 5 C5.61101563 5.57621094 6.22203125 6.15242188 6.8515625 6.74609375 C29.16093015 28.0235303 42.78198716 55.8553988 48 86 C48.17345947 86.89074219 48.34691895 87.78148437 48.52563477 88.69921875 C49.07609737 92.52950925 49.16209442 96.29195311 49.16796875 100.15234375 C49.17129715 100.92953262 49.17462555 101.7067215 49.17805481 102.50746155 C49.18310037 104.15055759 49.18546387 105.7936638 49.18530273 107.43676758 C49.18746598 109.89878243 49.20558208 112.36033126 49.22460938 114.82226562 C49.2736667 128.58501107 48.23483085 141.80954327 44 155 C43.62359375 156.2271875 43.2471875 157.454375 42.859375 158.71875 C34.14208485 185.93784392 18.2733207 210.1826347 -5 227 C-5.8971875 227.66773438 -6.794375 228.33546875 -7.71875 229.0234375 C-10.45778677 231.04761577 -13.21909737 233.03383117 -16 235 C-16.66644531 235.47566406 -17.33289063 235.95132812 -18.01953125 236.44140625 C-23.0060426 239.7902423 -28.34475817 241.81114979 -33.96875 243.875 C-36.20135885 244.7035971 -38.39584746 245.63670235 -40.5625 246.625 C-69.59497321 258.23798928 -109.35568311 257.27564176 -138.28125 245.328125 C-141.93803659 243.70142279 -145.46885555 241.88299745 -149 240 C-149.98226563 239.49339844 -150.96453125 238.98679687 -151.9765625 238.46484375 C-154.68772507 237.03289169 -157.3473925 235.53739714 -160 234 C-160.87914062 233.50242187 -161.75828125 233.00484375 -162.6640625 232.4921875 C-170.75774674 227.66396664 -177.30262792 221.55393578 -184 215 C-184.63583008 214.37931641 -185.27166016 213.75863281 -185.92675781 213.11914062 C-205.28207097 194.1537871 -205.28207097 194.1537871 -207 189 C-207.66 189 -208.32 189 -209 189 C-210.578125 187.42578125 -210.578125 187.42578125 -212.25 185.3125 C-212.81203125 184.62800781 -213.3740625 183.94351563 -213.953125 183.23828125 C-215 181 -215 181 -214.4296875 178.5625 C-210.25620296 171.08215612 -203.99625253 164.82787055 -197.8984375 158.88671875 C-191.72076882 152.74718383 -186.38624131 145.82723574 -181 139 C-177.18371168 140.54572776 -175.02974257 142.88771245 -172.3125 145.9375 C-171.87607178 146.42476562 -171.43964355 146.91203125 -170.98999023 147.4140625 C-168.07618857 150.69531843 -165.30413947 154.07295066 -162.5625 157.5 C-155.33060891 166.40958814 -147.55413179 174.02722043 -138.01953125 180.44140625 C-137.35308594 180.95574219 -136.68664062 181.47007812 -136 182 C-136 182.66 -136 183.32 -136 184 C-135.195625 184.20625 -134.39125 184.4125 -133.5625 184.625 C-130.47164461 185.81796173 -128.62171187 186.90624595 -126 188.8125 C-120.15305489 192.85202795 -113.74291396 194.90519086 -107 197 C-106.24074219 197.24878906 -105.48148437 197.49757813 -104.69921875 197.75390625 C-85.23528973 203.15845353 -61.54842181 197.93534565 -44 189 C-38.23751086 185.54369588 -33.04694431 181.41997533 -28 177 C-27.16984375 176.27554688 -26.3396875 175.55109375 -25.484375 174.8046875 C-10.24076079 160.4337993 -0.78160249 138.17707805 0.16796875 117.30859375 C0.29037996 93.04669102 -5.48070556 71.10067008 -21 52 C-22.10988281 50.9171875 -22.10988281 50.9171875 -23.2421875 49.8125 C-25 48 -25 48 -25 46 C-25.55429687 45.75507813 -26.10859375 45.51015625 -26.6796875 45.2578125 C-29.45667785 43.75244063 -31.6790412 41.87497201 -34.125 39.875 C-39.12435072 35.98034195 -44.34545077 33.14418473 -50.125 30.5625 C-50.85219238 30.2329834 -51.57938477 29.9034668 -52.32861328 29.56396484 C-61.52852483 25.61643389 -70.49494205 24.6542473 -80.4375 24.6875 C-81.39720703 24.67138672 -82.35691406 24.65527344 -83.34570312 24.63867188 C-93.1939083 24.63204009 -101.99287376 27.2041567 -110.9375 31.1875 C-111.61643311 31.48865723 -112.29536621 31.78981445 -112.99487305 32.10009766 C-126.00850825 38.06117229 -138.25128417 47.08034039 -147.3984375 58.11328125 C-148.97024002 59.96494129 -150.62476975 61.63020106 -152.375 63.3125 C-156.03087733 66.91175976 -159.19066772 70.84008407 -162.40625 74.83203125 C-166.98491282 80.47411379 -171.81191299 85.91069467 -176.59033203 91.38330078 C-177.71912616 92.67787555 -178.8428347 93.97688395 -179.96484375 95.27734375 C-185.94974556 102.19875831 -192.22383659 108.86666541 -198.45605469 115.56494141 C-207.41956003 125.20148504 -215.81929125 135.22421995 -224.01953125 145.51953125 C-230.04904011 153.07128298 -236.23688026 160.47264275 -242.54443359 167.79223633 C-245.7057091 171.46791459 -248.81253847 175.17902449 -251.875 178.9375 C-252.94041016 180.24460937 -252.94041016 180.24460937 -254.02734375 181.578125 C-255.29107173 183.12963262 -256.55415279 184.68166752 -257.81640625 186.234375 C-259.16643045 187.86091018 -260.57637181 189.43748126 -262 191 C-262.66 191 -263.32 191 -264 191 C-264.27062256 191.59208252 -264.54124512 192.18416504 -264.82006836 192.79418945 C-265.98807402 194.97770511 -267.18731238 196.49710404 -268.87890625 198.29296875 C-269.46172363 198.91478027 -270.04454102 199.5365918 -270.64501953 200.17724609 C-271.27778809 200.84062988 -271.91055664 201.50401367 -272.5625 202.1875 C-273.22362793 202.88439941 -273.88475586 203.58129883 -274.56591797 204.29931641 C-276.70245764 206.54085803 -278.8495493 208.77180482 -281 211 C-282.06951904 212.1125415 -282.06951904 212.1125415 -283.16064453 213.24755859 C-295.06138917 225.57419625 -306.82912463 237.42473497 -323 244 C-323.66 244 -324.32 244 -325 244 C-325 244.66 -325 245.32 -325 246 C-327.58071426 246.8011222 -330.16411849 247.59086557 -332.75 248.375 C-333.46027344 248.59671875 -334.17054688 248.8184375 -334.90234375 249.046875 C-346.89212257 252.65441907 -358.74523685 253.43668253 -371.1875 253.4375 C-371.97292175 253.43956451 -372.75834351 253.44162903 -373.56756592 253.4437561 C-387.80002407 253.43707827 -401.23825885 251.77847863 -415 248 C-415.87438721 247.7620874 -416.74877441 247.5241748 -417.6496582 247.27905273 C-425.27082395 245.10700258 -432.01253266 241.66802424 -439 238 C-440.42699219 237.30583984 -440.42699219 237.30583984 -441.8828125 236.59765625 C-449.3299484 232.85237654 -455.28930295 227.83310221 -461.4765625 222.33276367 C-463.01733149 220.98483772 -464.59064513 219.68592311 -466.17578125 218.390625 C-469.89513176 215.24229511 -472.89191767 211.73756736 -476 208 C-476.65226562 207.22398437 -477.30453125 206.44796875 -477.9765625 205.6484375 C-505.05404902 172.7163593 -513.24425016 132.92468364 -509.68359375 91.30126953 C-508.83932788 84.11988664 -507.55670795 77.05882025 -506 70 C-505.8340332 69.21818359 -505.66806641 68.43636719 -505.49707031 67.63085938 C-501.31723541 48.75902992 -491.30070335 32.06782844 -478.55371094 17.74755859 C-477.09622384 16.10822914 -475.67434718 14.44422912 -474.2578125 12.76953125 C-454.90756064 -9.7048494 -426.35865532 -24.94475195 -397 -29 C-396.37689941 -29.0913623 -395.75379883 -29.18272461 -395.11181641 -29.27685547 C-388.39319888 -30.1581144 -381.66937477 -30.22061413 -374.90039062 -30.24023438 C-372.89961783 -30.2498813 -370.89898647 -30.28105719 -368.8984375 -30.3125 C-349.78129331 -30.38776435 -333.38622869 -24.67366899 -316.25 -16.625 C-315.29158203 -16.17898437 -314.33316406 -15.73296875 -313.34570312 -15.2734375 C-297.99000686 -7.89761652 -285.34645368 3.58675637 -272.56103516 14.65478516 C-271.23988465 15.79328051 -269.90818448 16.91951613 -268.57421875 18.04296875 C-264.62278822 21.39593019 -261.21093884 24.93610398 -257.85546875 28.8828125 C-253.59045664 33.74941579 -249.05315689 38.40775588 -243.9375 42.375 C-243.298125 42.91125 -242.65875 43.4475 -242 44 C-242 47 -242 47 -243.42480469 48.50561523 C-244.08383789 49.03872314 -244.74287109 49.57183105 -245.421875 50.12109375 C-250.28269078 54.19711262 -254.76438614 58.58062415 -259.25 63.0625 C-260.03890625 63.83916016 -260.8278125 64.61582031 -261.640625 65.41601562 C-265.64516085 69.41040485 -268.9611794 73.24641635 -272 78 C-272.99 78.66 -273.98 79.32 -275 80 C-276.20450304 82.55183404 -276.20450304 82.55183404 -277 85 C-277.99 85 -278.98 85 -280 85 C-281.68359375 83.171875 -281.68359375 83.171875 -283.4375 80.75 C-285.2665727 78.24576623 -287.00125636 75.99877234 -289.22265625 73.828125 C-291 72 -291 72 -291 70 C-291.61875 69.7525 -292.2375 69.505 -292.875 69.25 C-295.35068687 67.79371361 -295.95125002 66.62187494 -297 64 C-297.66 64 -298.32 64 -299 64 C-300.33984375 62.63671875 -300.33984375 62.63671875 -301.9375 60.6875 C-310.74078214 50.43511792 -319.43438621 42.81791553 -331 36 C-331.79148437 35.50757813 -332.58296875 35.01515625 -333.3984375 34.5078125 C-351.64787035 23.58528949 -374.2452491 21.15405053 -394.8203125 25.8359375 C-408.05919709 29.28376212 -419.61520485 35.12897593 -430 44 C-430.69867188 44.52722656 -431.39734375 45.05445313 -432.1171875 45.59765625 C-447.71343509 57.84290285 -457.53866461 78.87068749 -461 98 C-463.46299259 121.4121784 -457.96925371 143.39806859 -445 163 C-444.27039063 163.89460937 -443.54078125 164.78921875 -442.7890625 165.7109375 C-441 168 -441 168 -441 170 C-440.34 170 -439.68 170 -439 170 C-437.97350723 171.12525155 -437.00412304 172.30282645 -436.0625 173.5 C-431.69065321 178.6337454 -426.58427867 182.27456582 -421 186 C-419.77603516 186.82177734 -419.77603516 186.82177734 -418.52734375 187.66015625 C-405.55894567 195.90510527 -391.859418 199.40143414 -376.625 199.3125 C-375.61058838 199.30686035 -374.59617676 199.3012207 -373.55102539 199.29541016 C-366.31866605 199.17805643 -359.81515029 198.56901114 -353 196 C-351.87722656 195.58621094 -350.75445312 195.17242187 -349.59765625 194.74609375 C-335.29198378 189.04557063 -321.48681684 179.94662724 -311.66796875 167.95703125 C-309.57341994 165.49949272 -307.28843314 163.27868129 -305 161 C-302.58462114 158.47653794 -300.19758879 155.92706993 -297.8125 153.375 C-297.18408203 152.70726562 -296.55566406 152.03953125 -295.90820312 151.3515625 C-295.00424805 150.38476562 -295.00424805 150.38476562 -294.08203125 149.3984375 C-293.53780518 148.81755371 -292.9935791 148.23666992 -292.43286133 147.63818359 C-290.80558257 145.84949555 -290.80558257 145.84949555 -289 143 C-288.34 143 -287.68 143 -287 143 C-286.64421875 141.9171875 -286.64421875 141.9171875 -286.28125 140.8125 C-284.79432494 137.54851816 -282.98594067 135.58034349 -280.5 133 C-276.72364947 128.96283678 -273.25406364 124.85741504 -269.9375 120.4375 C-266.25327459 115.54289712 -262.34967815 110.95432659 -258.203125 106.4453125 C-255.1553354 103.06248219 -252.31553395 99.52490402 -249.44921875 95.98828125 C-240.26970166 84.78839197 -230.83510589 73.71125863 -220.5 63.5625 C-216.12011066 59.2312086 -212.22202492 54.70759949 -208.38671875 49.89453125 C-204.70005831 45.42347498 -200.72917642 41.22791982 -196.77734375 36.9921875 C-194.61922281 34.67759738 -192.5082619 32.33104254 -190.4375 29.9375 C-164.8102884 0.44781392 -137.406686 -25.06515422 -97 -30 C-95.58074219 -30.21076172 -95.58074219 -30.21076172 -94.1328125 -30.42578125 C-60.64139929 -34.650382 -25.28713991 -21.72153023 0 0 Z " fill="#FDFDFD" transform="translate(581,250)"/>
<path d="M0 0 C5.81369997 2.63180481 9.23596352 6.41485032 11.79296875 12.265625 C12.83040837 18.68327477 11.49516616 23.96475143 7.79296875 29.265625 C3.51007472 33.43870123 -0.58603328 35.32655652 -6.51953125 35.703125 C-11.7383581 35.57265433 -15.30704456 33.65384873 -19.20703125 30.265625 C-23.17123141 25.18331711 -24.64630111 21.03072138 -24.54296875 14.67578125 C-23.83527992 9.59852532 -21.1663293 6.02047456 -17.41015625 2.65625 C-11.85523346 -1.29885502 -6.494334 -2.16094654 0 0 Z " fill="#FAFAFA" transform="translate(357.20703125,522.734375)"/>
<path d="M0 0 C5.81369997 2.63180481 9.23596352 6.41485032 11.79296875 12.265625 C12.83040837 18.68327477 11.49516616 23.96475143 7.79296875 29.265625 C3.51007472 33.43870123 -0.58603328 35.32655652 -6.51953125 35.703125 C-11.7383581 35.57265433 -15.30704456 33.65384873 -19.20703125 30.265625 C-23.17123141 25.18331711 -24.64630111 21.03072138 -24.54296875 14.67578125 C-23.83527992 9.59852532 -21.1663293 6.02047456 -17.41015625 2.65625 C-11.85523346 -1.29885502 -6.494334 -2.16094654 0 0 Z " fill="#FAFAFA" transform="translate(502.20703125,344.734375)"/>
<path d="M0 0 C5.81369997 2.63180481 9.23596352 6.41485032 11.79296875 12.265625 C12.83040837 18.68327477 11.49516616 23.96475143 7.79296875 29.265625 C3.51007472 33.43870123 -0.58603328 35.32655652 -6.51953125 35.703125 C-11.7383581 35.57265433 -15.30704456 33.65384873 -19.20703125 30.265625 C-23.17123141 25.18331711 -24.64630111 21.03072138 -24.54296875 14.67578125 C-23.83527992 9.59852532 -21.1663293 6.02047456 -17.41015625 2.65625 C-11.85523346 -1.29885502 -6.494334 -2.16094654 0 0 Z " fill="#FAFAFA" transform="translate(213.20703125,344.734375)"/>
<path d="M0 0 C5.81369997 2.63180481 9.23596352 6.41485032 11.79296875 12.265625 C12.83040837 18.68327477 11.49516616 23.96475143 7.79296875 29.265625 C3.51007472 33.43870123 -0.58603328 35.32655652 -6.51953125 35.703125 C-11.7383581 35.57265433 -15.30704456 33.65384873 -19.20703125 30.265625 C-23.17123141 25.18331711 -24.64630111 21.03072138 -24.54296875 14.67578125 C-23.83527992 9.59852532 -21.1663293 6.02047456 -17.41015625 2.65625 C-11.85523346 -1.29885502 -6.494334 -2.16094654 0 0 Z " fill="#FAFAFA" transform="translate(357.20703125,157.734375)"/>
</svg>
