<?xml version="1.0" standalone="no"?>
<!DOCTYPE svg PUBLIC "-//W3C//DTD SVG 20010904//EN"
 "http://www.w3.org/TR/2001/REC-SVG-20010904/DTD/svg10.dtd">
<svg version="1.0" xmlns="http://www.w3.org/2000/svg"
 width="200.000000pt" height="200.000000pt" viewBox="0 0 200.000000 200.000000"
 preserveAspectRatio="xMidYMid meet">

<g transform="translate(0.000000,200.000000) scale(0.100000,-0.100000)"
fill="#000000" stroke="none">
<path d="M772 1959 c-26 -8 -37 -19 -52 -54 -16 -37 -24 -45 -45 -45 -33 0
-81 -24 -89 -45 -12 -31 -6 -80 14 -110 10 -16 47 -56 82 -87 62 -56 62 -57
43 -78 -24 -26 -25 -83 -2 -108 17 -18 15 -21 -55 -72 -167 -123 -329 -320
-398 -487 -56 -135 -72 -214 -76 -371 l-2 -144 -36 -45 c-43 -56 -52 -90 -32
-136 24 -58 44 -64 211 -70 112 -4 181 -13 275 -34 118 -26 138 -28 370 -28
238 0 248 1 355 29 93 24 135 29 275 33 184 5 202 11 227 70 18 45 11 74 -32
134 l-35 46 -4 144 c-4 158 -21 240 -76 372 -70 168 -241 376 -403 491 -66 47
-67 49 -50 68 23 25 22 82 -2 108 -19 21 -19 22 43 78 35 31 72 71 82 87 20
30 26 79 14 110 -8 20 -56 45 -88 45 -20 0 -29 9 -44 44 -28 63 -64 73 -177
50 -81 -17 -89 -17 -167 -1 -46 9 -85 17 -88 16 -3 0 -20 -5 -38 -10z m141
-53 c58 -12 76 -12 134 0 83 17 125 18 141 2 32 -32 -5 -147 -92 -282 -30 -47
-40 -56 -65 -56 -30 0 -30 1 -33 63 -2 47 -7 62 -18 62 -11 0 -16 -15 -18 -62
-3 -62 -3 -63 -33 -63 -25 0 -35 9 -65 56 -87 135 -124 250 -92 282 16 16 58
15 141 -2z m-179 -129 c8 -23 36 -78 61 -121 25 -44 45 -81 45 -83 0 -30 -165
96 -201 153 -10 17 -19 38 -19 47 0 21 39 47 71 47 22 0 29 -7 43 -43z m584
27 c27 -19 28 -37 2 -79 -24 -39 -162 -155 -184 -155 -9 0 -16 1 -16 3 0 2 20
39 45 83 25 43 53 98 61 121 14 36 21 43 43 43 15 0 37 -7 49 -16z m-134 -284
c31 -11 35 -46 9 -66 -24 -18 -380 -20 -418 -2 -33 15 -34 55 -2 68 30 12 379
12 411 0z m-111 -175 c25 -51 48 -68 62 -45 3 5 -4 28 -16 51 l-21 42 42 -6
c105 -14 341 -232 449 -414 92 -156 133 -308 135 -503 l1 -126 38 -51 c42 -57
47 -93 17 -123 -17 -17 -33 -20 -122 -20 l-101 0 54 38 c29 21 55 45 57 55 6
29 -26 31 -59 2 -48 -40 -158 -92 -252 -119 -199 -58 -486 -60 -752 -6 -120
24 -175 30 -278 30 -114 0 -129 2 -147 20 -27 27 -25 66 7 108 l26 35 18 -34
c26 -51 55 -75 74 -59 13 10 11 17 -14 54 -45 65 -56 111 -55 221 3 299 134
558 393 776 100 84 160 119 204 119 l27 0 -20 -40 c-11 -23 -18 -45 -15 -50
14 -23 37 -6 62 45 l27 55 66 0 66 0 27 -55z"/>
<path d="M948 1063 c-3 -33 -7 -38 -35 -44 -110 -22 -166 -130 -113 -217 15
-24 40 -42 85 -63 36 -16 69 -29 74 -29 23 0 125 -44 142 -61 42 -42 6 -119
-62 -133 -88 -17 -159 5 -192 61 -16 29 -24 34 -51 31 -26 -3 -31 -7 -28 -28
5 -53 76 -116 143 -126 35 -6 38 -9 41 -43 3 -31 6 -36 28 -36 21 0 26 6 30
34 5 31 10 35 55 48 69 21 101 46 120 98 22 56 14 103 -23 137 -36 34 -55 43
-164 79 -51 16 -103 40 -115 51 -23 21 -29 60 -17 93 16 42 126 60 184 30 16
-9 37 -29 45 -45 13 -25 22 -30 50 -30 41 0 45 18 15 67 -22 37 -54 60 -108
78 -32 11 -37 17 -40 49 -3 32 -6 36 -32 36 -26 0 -29 -4 -32 -37z"/>
</g>
</svg>
